<?xml version="1.0" encoding="utf-8"?>
<!DOCTYPE svg PUBLIC "-//W3C//DTD SVG 1.0//EN" "http://www.w3.org/TR/2001/REC-SVG-20010904/DTD/svg10.dtd">
<svg version="1.0" xmlns="http://www.w3.org/2000/svg" width="640px" height="640px" viewBox="0 0 640 640" preserveAspectRatio="xMidYMid meet">
 <g fill="#0f1624">
  <path d="M0 320 l0 -320 320 0 320 0 0 320 0 320 -320 0 -320 0 0 -320z m527.81 188.13 c-0.31 -0.50 -0.69 -0.50 -1.06 -0.13 -0.38 0.38 -0.44 1 -0.19 1.38 0.31 0.50 0.69 0.50 1.06 0.13 0.38 -0.38 0.44 -1 0.19 -1.38z m-269 -46.50 c4.25 -2.19 9.88 -4.75 12.44 -5.75 2.56 -0.94 4.81 -1.81 4.94 -1.94 0.13 -0.06 0.50 -2.81 0.75 -6.13 0.31 -3.25 1.25 -9.69 2.13 -14.38 1 -5.19 1.56 -10.69 1.56 -14.50 0 -11.06 2.06 -16.44 11.81 -30.94 16.63 -24.75 41.56 -52.88 94.19 -106.25 l22.06 -22.38 2.81 0 2.88 0 0 2.25 c0 2 -1 3.50 -7.06 11.13 -9.31 11.56 -17.81 21.63 -38 45.13 -32.13 37.44 -46.56 55.19 -59.25 73.06 -9.56 13.38 -13.38 19.13 -12.94 19.50 0.38 0.38 18.13 -0.88 21 -1.44 0.88 -0.19 2.44 -0.69 3.44 -1.19 1.06 -0.44 4.56 -1.69 7.81 -2.81 13.25 -4.44 26.88 -12.75 37 -22.44 3.38 -3.25 6.06 -6 5.94 -6.13 -0.13 -0.13 -2.25 0.19 -4.75 0.75 -4.69 1 -18.75 1.25 -24.88 0.56 -3.25 -0.44 -3.31 -0.50 -3.31 -2.44 0 -1.13 0.38 -2.31 0.81 -2.63 0.38 -0.31 3 -1.06 5.75 -1.69 2.75 -0.56 7 -1.50 9.38 -2 2.44 -0.50 5.25 -1.38 6.25 -1.88 1.06 -0.50 4 -1.81 6.56 -2.94 10.88 -4.50 20.44 -10.94 29.88 -20.06 7.88 -7.63 13.38 -14.13 18.50 -21.88 3 -4.50 9.13 -15.13 9.13 -15.75 0 -0.19 -1.69 0.56 -3.75 1.63 -7.94 4 -21.38 7.50 -28.81 7.50 -3.06 0 -3.06 0 -3.06 -2.06 0 -2.44 1.19 -3.69 4.69 -5.13 17 -6.94 33.44 -20 42.44 -33.88 9.63 -14.75 15.63 -32.94 17.94 -54.50 0.81 -7.63 0.44 -35.13 -0.50 -38.38 -0.50 -1.75 -0.56 -1.69 -2.38 2.19 -6.19 13.06 -22.44 33.38 -37.44 46.69 -16.13 14.31 -25.31 20.81 -57.56 40.69 -24 14.88 -38.13 27.31 -48.19 42.63 -8.25 12.44 -12.75 28.81 -12.75 46 l0 3.88 -2.13 0 -2.13 0 -1.31 -5.56 c-1.50 -6.31 -2.88 -21 -2.31 -24.75 l0.38 -2.50 -1.63 2.50 c-3.25 5.13 -7.88 15 -9.94 21.19 -3.38 10.06 -4.31 17.69 -3.75 28.50 0.88 15.44 1.06 14.19 -2.69 18.94 -6.56 8.25 -15.63 15.44 -28.06 22.31 l-6.88 3.81 -0.38 6.38 c-0.63 9.75 -3.38 25.88 -5.81 34.50 -0.19 0.69 3.56 -4.50 8.38 -11.56 l8.75 -12.81 0.25 -4.81 c0.19 -4.31 0.38 -5.06 1.94 -6.56 1.50 -1.56 2.25 -1.75 6.69 -1.94 3.94 -0.19 5.38 0 6.63 0.81 4.69 3.06 4.44 13.75 -0.44 16.25 -0.94 0.50 -2.56 0.94 -3.56 0.94 -1.13 0 -2.31 0.63 -3.38 1.75 -1.44 1.50 -8.69 11.56 -14.19 19.69 l-2 2.94 6.19 -4.06 c3.44 -2.19 9.69 -5.81 13.94 -8.06z m330.31 -6.56 c-0.56 -0.88 -2.06 -0.88 -2.56 -0.06 -0.25 0.38 -0.06 1.13 0.38 1.63 0.69 0.81 0.88 0.81 1.69 0 0.50 -0.50 0.69 -1.19 0.50 -1.56z m-171.25 0.50 c0.19 -0.38 0.06 -1 -0.25 -1.31 -0.81 -0.81 -2.81 0.50 -2.25 1.44 0.44 0.75 1.94 0.69 2.50 -0.13z m76.19 0.06 c0.25 -0.38 0.06 -1.13 -0.38 -1.63 -0.69 -0.81 -0.88 -0.81 -1.69 0 -0.50 0.50 -0.69 1.19 -0.50 1.56 0.56 0.88 2.06 0.88 2.56 0.06z m36.81 -47.44 c0.19 -0.31 -0.06 -0.88 -0.50 -1.25 -1 -0.81 -2 0.13 -1.31 1.19 0.50 0.75 1.38 0.81 1.81 0.06z m-35.75 -2.94 c1.44 -0.75 2.75 -0.88 5 -0.63 1.75 0.25 3 0.19 3 -0.19 0 -0.31 0.13 -0.94 0.31 -1.44 0.25 -0.69 -2.50 -0.69 -16.38 -0.06 -9.25 0.38 -20.69 0.75 -25.50 0.88 -8.69 0.13 -8.75 0.13 -3.75 0.63 2.75 0.31 10.56 0.63 17.31 0.75 6.75 0.13 12.50 0.38 12.75 0.63 0.81 0.81 5.25 0.44 7.25 -0.56z m-52.06 -1.13 c0.63 -0.75 0.50 -1.06 -0.56 -1.63 -1.81 -0.94 -3.06 0.13 -1.88 1.56 1 1.19 1.50 1.19 2.44 0.06z m-32.81 -35.50 c-9.19 -9.88 -10.94 -11.69 -10.75 -11.13 0.25 0.81 12.38 13.75 12.88 13.75 0.19 0 -0.75 -1.19 -2.13 -2.63z m-273.56 -3.75 c-0.13 -0.81 -0.25 -0.19 -0.25 1.38 0 1.56 0.13 2.19 0.25 1.44 0.13 -0.81 0.13 -2.06 0 -2.81z m333.94 -2.81 c-1.06 -0.44 -7.31 -3.25 -12.81 -5.81 -2.06 -1 -11.56 -5.56 -21.06 -10.25 -9.56 -4.69 -17.63 -8.50 -17.94 -8.50 -0.38 0 -0.75 0.25 -0.94 0.56 -0.19 0.31 1.50 1.50 3.88 2.56 2.31 1.13 8.13 3.94 12.94 6.25 21.38 10.31 33.25 15.56 35.31 15.56 0.94 -0.06 1.19 -0.19 0.63 -0.38z m-412.75 -28.38 c0.63 -1.06 -0.81 -2.25 -1.69 -1.38 -0.75 0.75 -0.25 2.06 0.69 2.06 0.31 0 0.75 -0.31 1 -0.69z m215.56 -4.94 l0.94 -1.81 -2.63 -0.69 c-8.88 -2.25 -13.94 -6.19 -17.69 -13.63 -2.25 -4.50 -3 -8.94 -2.63 -15.69 0.38 -7.25 1.75 -11.31 6.06 -17.38 3.56 -5.13 15 -15.94 17.38 -16.50 0.94 -0.25 7.81 -0.44 15.31 -0.50 13.06 -0.06 13.69 -0.13 15.63 -1.44 1.13 -0.81 9.69 -9.19 19.06 -18.69 l17 -17.25 0 -10.38 c0 -9.25 0.13 -10.44 1.13 -11 0.81 -0.50 0.25 -0.63 -2.38 -0.63 -1.88 0 -3.06 0.19 -2.63 0.38 0.56 0.19 0.75 3.13 0.75 11.63 l0 11.38 -10.13 10.13 c-9.56 9.56 -10.31 10.19 -12.50 10.19 l-2.38 0 0 -24.19 c0 -13.56 0.31 -26 0.63 -28.19 1.38 -8.31 5.88 -16.25 12.31 -21.56 6.06 -5 11 -6.56 21.75 -7.06 6.63 -0.31 8.94 -0.19 12.50 0.69 5.63 1.44 11.69 4.50 15.50 7.81 2.63 2.31 2.94 2.88 2.94 5.25 0 2.44 -0.31 2.88 -6.75 9.31 l-6.75 6.75 -9.50 -0.19 -9.50 -0.19 0 1.88 0 1.88 9.25 -0.31 9.31 -0.31 8.06 -7.75 8.06 -7.69 5 0.31 c13.75 1 25.06 9 30.06 21.19 0.63 1.69 1.38 3 1.63 3 0.25 0 0.88 -0.63 1.38 -1.31 0.88 -1.25 0.81 -1.63 -0.56 -4.25 -5.75 -11.38 -17.13 -19.94 -29.75 -22.44 l-5.25 -1 -5 -5.06 c-5.88 -5.94 -12.31 -9.56 -20.06 -11.25 -6.44 -1.44 -15.38 -0.94 -21.88 1.25 -6.75 2.25 -8.63 2.13 -14.13 -1.25 -13.31 -8.25 -29 -8.63 -44.13 -1.13 -4.63 2.25 -7.06 4 -11.44 8.19 l-5.63 5.31 -5.81 -0.44 c-8.69 -0.56 -14.75 0.63 -22.88 4.69 -5.69 2.88 -7.38 4.13 -12.56 9.31 -5 5 -6.44 6.81 -8.63 11.31 -1.44 3 -3 7.50 -3.56 10 -0.56 2.81 -1.31 4.94 -2 5.44 -10.94 8.06 -13.94 11.31 -17.81 19.19 -3.25 6.56 -4.88 13.13 -4.94 20 -0.06 7.19 1.31 12.88 4.81 20 4.88 10.06 11.63 16.69 21.88 21.63 7.75 3.75 12.38 4.50 25.19 4.06 8.25 -0.25 10.88 -0.19 11 0.44 0.13 0.38 0.63 2.63 1.19 5 0.56 2.31 1.75 5.75 2.69 7.69 1.94 4.13 8.13 10.94 12 13.19 2.13 1.25 9.13 4.44 9.94 4.56 0.06 0 0.56 -0.81 1.13 -1.88z m7.19 -23.50 c0 -0.13 -1.06 -0.25 -2.31 -0.19 -1.81 0 -2.06 0.13 -1.13 0.50 1.13 0.44 3.44 0.25 3.44 -0.31z m-8.13 -6.31 c-0.06 -2.38 -0.19 -2.75 -0.69 -1.88 -0.56 1 -0.25 4.81 0.44 4.81 0.13 0 0.25 -1.31 0.25 -2.94z m12.69 -2.63 l-0.31 -3.50 5 -4.81 5 -4.81 10.38 -0.19 10.38 -0.19 15.19 -15.13 15.19 -15.19 6.88 0 c6.63 0 7 -0.06 10.25 -2 1.88 -1.13 3.75 -2.75 4.19 -3.63 0.50 -0.94 0.81 -4.06 0.81 -7.94 0 -3.88 0.25 -6.44 0.63 -6.44 0.38 0 0.63 -0.25 0.63 -0.63 0 -0.31 -1.31 -0.63 -2.94 -0.63 -2.31 0 -2.75 0.19 -2.19 0.75 0.88 0.88 1.06 14.69 0.19 16.06 -0.44 0.69 -2.63 1 -9 1.19 l-8.44 0.31 -14.88 14.88 -14.94 14.94 -10.25 0 -10.25 0 -6.38 6.25 -6.31 6.25 -3.44 0 c-1.88 0 -3.81 0.31 -4.31 0.63 -0.69 0.44 0.06 0.63 2.63 0.63 4.31 0 5.50 1.25 5.50 5.63 0 1.88 0.19 2.50 0.56 1.94 0.31 -0.44 0.44 -2.44 0.25 -4.38z m-227.56 -21 c0 -0.31 -0.31 -0.69 -0.69 -0.81 -0.38 -0.13 -0.69 0.25 -0.69 0.81 0 0.56 0.31 0.94 0.69 0.81 0.38 -0.13 0.69 -0.50 0.69 -0.81z m338.63 -52.25 c0 -2.75 0.25 -4.31 0.81 -4.50 0.38 -0.19 -0.38 -0.38 -1.75 -0.38 l-2.50 -0.06 0.19 6 0.19 6 1.56 -1.44 c1.31 -1.19 1.50 -1.94 1.50 -5.63z m-35.63 2.19 c0 -1.69 -0.25 -2.69 -0.63 -2.44 -0.69 0.44 -0.81 2.81 -0.25 4.31 0.63 1.63 0.88 1.13 0.88 -1.88z m13.13 0.06 c0 -0.69 -0.31 -1.69 -0.63 -2.19 -0.44 -0.69 -0.63 -0.06 -0.63 2.19 0 2.25 0.19 2.88 0.63 2.19 0.31 -0.50 0.63 -1.50 0.63 -2.19z m-5 -6.56 c-0.50 -0.31 -1.50 -0.63 -2.19 -0.63 -0.69 0 -1.69 0.31 -2.19 0.63 -0.69 0.44 -0.06 0.63 2.19 0.63 2.25 0 2.88 -0.19 2.19 -0.63z m19.94 -6.69 c0 -2.56 -0.13 -2.81 -0.69 -1.63 -0.63 1.25 -0.25 4.56 0.44 4.56 0.19 0 0.31 -1.31 0.25 -2.94z m12.63 -1.38 c-0.50 -1.38 -0.56 -1.19 -0.63 1.50 0 2.63 0.13 2.88 0.63 1.63 0.38 -0.94 0.38 -2.13 0 -3.13z m-4.44 -5.06 c-0.50 -0.31 -1.50 -0.63 -2.19 -0.63 -0.69 0 -1.69 0.31 -2.19 0.63 -0.69 0.44 -0.06 0.63 2.19 0.63 2.25 0 2.88 -0.19 2.19 -0.63z m-62.56 -8.56 c0 -2.06 -0.06 -2.19 -0.56 -0.94 -0.50 1.25 -0.25 3.25 0.38 3.25 0.13 0 0.25 -1.06 0.19 -2.31z m8.56 -6.13 c-1.50 -1.13 -2 -1.13 -4.44 0 -1.81 0.81 -1.81 0.81 1.88 0.88 3.44 0 3.63 -0.06 2.56 -0.88z"/>
  <path d="M220.56 294.94 c-8.19 -1.19 -16.69 -5.88 -22.44 -12.31 -15.88 -17.88 -12.44 -50.31 6.69 -63 5.88 -3.88 9.50 -4.69 20.75 -4.50 l9.75 0.19 0.31 14.69 c0.38 16.63 0.56 17.56 4.81 18.69 1.31 0.38 6.88 0.69 12.38 0.69 l10.06 0 4.19 4.25 c3.56 3.56 4.19 4.56 4.19 6.38 0 1.94 -0.63 2.75 -4.63 6.44 l-4.63 4.19 -14.88 0 -14.81 0 -7.13 -7 -7.06 -7 0 -4.06 c0 -2.31 -0.31 -4.56 -0.63 -5.06 -0.44 -0.69 -0.63 0.06 -0.63 2.56 0 4.50 -1.06 5.56 -5.69 5.56 -2.38 0 -3.13 0.19 -2.44 0.63 0.50 0.31 2.50 0.63 4.44 0.63 l3.56 0 5.50 6.06 c3.06 3.31 6.94 7.13 8.56 8.44 l3.06 2.38 10.88 0 10.88 0 0 2 c0 1.25 -0.88 3.50 -2.31 5.75 -1.25 2.06 -3.13 5.81 -4.25 8.44 l-1.94 4.75 -3.69 0.38 c-5.25 0.56 -18.69 0.50 -22.88 -0.13z m-15.63 -45.38 c0 -1.81 -0.13 -2.06 -0.50 -1.13 -0.44 1.13 -0.25 3.44 0.31 3.44 0.13 0 0.25 -1.06 0.19 -2.31z m7.44 -6.25 c-0.63 -0.13 -1.75 -0.13 -2.50 0 -0.81 0.13 -0.31 0.25 1.06 0.25 1.38 0.06 2 -0.06 1.44 -0.25z"/>
  <path d="M272.69 256.31 c-1.63 -1.31 -4.56 -4 -6.44 -5.94 l-3.44 -3.56 -0.19 -13.75 c-0.13 -9.94 0 -14.06 0.56 -14.69 0.56 -0.75 0.31 -0.88 -1.69 -0.88 l-2.44 0 0.19 14.06 0.19 14.06 -10 0 -10 0 -0.19 -13.88 c-0.19 -15.50 -0.56 -16.88 -4.44 -19.25 -1.75 -1.13 -3.19 -1.25 -11.94 -1.25 l-9.88 0 0.25 -3.44 c0.63 -7.75 9.94 -20.31 17.69 -24.06 1.75 -0.81 4.13 -1.94 5.31 -2.56 3.50 -1.75 9.19 -2.50 16.56 -2.31 l6.88 0.19 -0.13 2.81 c-0.06 1.56 -0.25 7.19 -0.38 12.50 -0.13 5.38 -0.38 10.06 -0.69 10.50 -0.31 0.56 0.44 0.75 2.81 0.75 2.88 0 3.13 -0.13 2.19 -0.81 -1 -0.75 -1.06 -1.81 -0.88 -11.44 l0.19 -10.63 2.38 -4.75 c5.63 -11.38 18.56 -18 35.19 -18 8.19 0 14.56 1.44 20.44 4.50 3.44 1.81 3.88 2.31 4.06 4.13 0.19 1.81 -0.25 2.63 -2.94 5.38 -6.75 7.19 -10.25 15 -11.38 25.38 -0.31 3.25 -0.56 17 -0.50 30.56 l0.13 24.63 -2.25 2.06 -2.31 2.13 -14.94 0 -14.94 0 -3.06 -2.44z m19.81 -15.44 c0 -0.13 -1.63 -0.25 -3.56 -0.19 -3.50 0.06 -3.56 0.06 -1.81 0.88 1.31 0.56 2.38 0.63 3.63 0.19 0.94 -0.38 1.75 -0.75 1.75 -0.88z m3.75 -5.56 c0 -0.69 -0.31 -1.69 -0.63 -2.19 -0.44 -0.69 -0.63 -0.06 -0.63 2.19 0 2.25 0.19 2.88 0.63 2.19 0.31 -0.50 0.63 -1.50 0.63 -2.19z m-13.13 -0.44 c-0.06 -2.19 -0.19 -2.50 -0.69 -1.56 -0.63 1.06 -0.31 4.19 0.38 4.19 0.19 0 0.31 -1.19 0.31 -2.63z m8.56 -6.25 c-0.88 -0.75 -1 -2.69 -0.88 -17.81 l0.13 -17.06 -1.94 0 -2 0 0.13 17.19 c0.13 15.13 0 17.31 -0.81 17.81 -0.69 0.44 0.13 0.56 2.69 0.63 3.13 0 3.56 -0.13 2.69 -0.75z m-23.56 -16.94 c0 -1.13 -0.31 -2.44 -0.63 -2.94 -0.44 -0.69 -0.63 0 -0.63 2.38 0 2.06 0.25 3.19 0.63 2.94 0.38 -0.19 0.63 -1.31 0.63 -2.38z m-13.19 -0.56 c0 -2.38 -0.06 -2.50 -0.63 -1.19 -0.50 1.38 -0.25 3.81 0.44 3.81 0.13 0 0.25 -1.19 0.19 -2.63z m41.31 -23.31 c0 -0.69 -0.31 -1.69 -0.63 -2.19 -0.44 -0.69 -0.63 -0.06 -0.63 2.19 0 2.25 0.19 2.88 0.63 2.19 0.31 -0.50 0.63 -1.50 0.63 -2.19z m-13.13 -0.44 c-0.06 -2.19 -0.19 -2.50 -0.69 -1.56 -0.63 1.06 -0.31 4.19 0.38 4.19 0.19 0 0.31 -1.19 0.31 -2.63z m8.13 -6.13 c-0.50 -0.31 -1.50 -0.63 -2.19 -0.63 -0.69 0 -1.69 0.31 -2.19 0.63 -0.69 0.44 -0.06 0.63 2.19 0.63 2.25 0 2.88 -0.19 2.19 -0.63z"/>
 </g>
 <g fill="#1b2333">
  <path d="M525.81 511.81 c-1.69 -0.63 -2.44 -3.06 -1.44 -4.88 0.44 -0.94 1.25 -1.31 2.69 -1.31 2.50 0 3.56 0.94 3.56 3.19 0 2.50 -2.31 3.94 -4.81 3z"/>
  <path d="M220.63 492.38 c-1.50 -0.81 -3.31 -2.19 -3.94 -3.06 l-1.19 -1.69 2.31 -8 c2.31 -7.75 3.44 -10.50 3.44 -8.19 0 0.63 -1 4.13 -2.19 7.88 -1.19 3.69 -2.19 7.38 -2.19 8.06 0 1.56 3.69 4.25 6.56 4.88 1.56 0.25 2.69 -0.19 6.25 -2.63 2.44 -1.56 5.63 -3.94 7.19 -5.19 9.81 -8 28.94 -19 40.44 -23.19 2.19 -0.75 4.25 -1.75 4.56 -2.25 0.38 -0.44 1.13 -3.63 1.56 -7.06 0.50 -3.44 1.44 -9.56 2.13 -13.63 0.69 -4.06 1.56 -9.88 1.94 -13 1.13 -8.31 0.44 -7.81 10.50 -7.75 10.19 0.06 10.19 0.38 0 0.69 -4.06 0.19 -7.56 0.44 -7.75 0.69 -0.56 0.50 -1.63 6.69 -4.31 24.75 -2.44 16.38 -2.50 16.56 -7.69 18.50 -13.94 5.19 -32.81 16.25 -44.81 26.25 -4.06 3.44 -7.19 5.31 -8.75 5.31 -0.75 0 -2.56 -0.63 -4.06 -1.38z"/>
  <path d="M585.38 458.69 c-4.31 -3.38 0.56 -9 5.13 -5.81 1.75 1.19 1.75 3.31 0.06 5.50 -1.56 1.94 -2.94 2.06 -5.19 0.31z"/>
  <path d="M414.13 457.94 c-1.69 -1.25 -1.13 -4.81 0.94 -6 3.56 -2 7.31 2.56 4.56 5.63 -1.25 1.38 -3.88 1.56 -5.50 0.38z"/>
  <path d="M489.81 457.69 c-1.56 -1.81 -1.38 -4.25 0.56 -5.75 2.06 -1.63 2.81 -1.63 4.69 -0.19 0.94 0.81 1.38 1.88 1.38 3.19 0 2.44 -0.63 3.13 -3.38 3.56 -1.63 0.25 -2.38 0.06 -3.25 -0.81z"/>
  <path d="M365.25 417.94 c-0.31 -0.81 -0.56 -0.94 -0.88 -0.44 -0.25 0.44 -0.81 0.56 -1.19 0.38 -0.88 -0.56 -0.94 -2.25 -0.06 -2.25 0.38 0 0.63 -0.31 0.63 -0.69 0 -0.31 -0.25 -0.44 -0.63 -0.25 -0.31 0.19 -0.63 0.06 -0.63 -0.25 0 -0.38 0.69 -0.63 1.50 -0.56 0.88 0.06 1.44 0.31 1.31 0.56 -0.19 0.19 0.44 0.69 1.25 1.06 0.88 0.44 1.56 1.06 1.56 1.44 0 0.44 -0.19 0.56 -0.44 0.38 -0.19 -0.25 -0.75 0.06 -1.19 0.69 -0.75 1 -0.81 1 -1.25 -0.06z"/>
  <path d="M527.44 409.94 c-2.06 -2.06 -0.63 -6.19 2.25 -6.19 1.88 0 3.44 1.88 3.44 4.25 0 3.19 -3.31 4.31 -5.69 1.94z"/>
  <path d="M501.06 407.81 c0.38 -1.13 0.31 -1.19 -0.75 -0.31 -0.63 0.50 -1 0.63 -0.75 0.25 0.56 -0.94 -0.94 -1.56 -2.06 -0.88 -0.63 0.38 -0.50 0.56 0.38 0.75 0.63 0.19 -1.56 0.31 -4.94 0.38 -3.56 0.13 -6.63 -0.13 -7.44 -0.56 -0.94 -0.50 -1.38 -0.50 -1.75 0.06 -0.38 0.56 -0.56 0.56 -0.81 -0.06 -0.25 -0.63 -0.38 -0.69 -0.38 -0.06 -0.06 0.44 -0.63 0.69 -1.44 0.50 -0.81 -0.19 -5.50 -0.44 -10.50 -0.69 -5 -0.19 -10.75 -0.50 -12.81 -0.69 -2.06 -0.19 -5.44 -0.38 -7.44 -0.50 -2.13 -0.13 -3.88 -0.50 -4 -0.88 -0.13 -0.50 -0.63 -0.31 -1.25 0.50 -0.63 0.63 -1.75 1.38 -2.63 1.56 -2.13 0.50 -5 -1.69 -5 -3.81 0 -1.69 2 -4 3.44 -4 1.25 0 4.69 1.75 4.69 2.38 0 0.25 3.88 0.38 8.56 0.31 9.06 -0.19 50.63 -1.88 58.81 -2.38 2.63 -0.19 4.38 -0.13 3.88 0.13 -1.06 0.56 -1.56 2.06 -0.69 2.06 0.31 0 0.69 -0.38 0.88 -0.75 0.13 -0.44 0.44 -0.63 0.69 -0.38 0.25 0.19 0.19 1 -0.25 1.69 -0.56 1.13 -0.50 1.31 0.75 1.38 1.38 0.06 1.38 0.06 -0.13 0.50 -1.75 0.56 -3.13 -0.19 -3.19 -1.75 0 -0.75 -0.13 -0.69 -0.56 0.25 -0.38 0.94 -0.56 1 -0.56 0.25 -0.06 -0.69 -0.69 -1 -2.06 -1.06 -1.94 -0.06 -2 0 -0.88 0.88 0.69 0.50 1.06 0.94 0.81 0.94 -1.63 0.31 -2.06 0.25 -2.75 -0.19 -0.38 -0.31 -0.88 -0.31 -1.06 0.06 -0.25 0.38 -0.88 0.44 -1.44 0.25 -0.63 -0.25 -0.88 -0.13 -0.63 0.25 0.25 0.38 0.06 0.88 -0.31 1 -0.50 0.25 -0.44 0.38 0.19 0.38 0.56 0.06 1.19 0.75 1.31 1.50 0.25 1.38 0.06 1.50 -2.13 1.56 -1.31 0.06 -2.31 -0.06 -2.31 -0.38 0.25 -1.31 -0.19 -1.50 -1 -0.38 -0.94 1.19 -0.94 1.19 -0.50 -0.06z"/>
  <path d="M421.88 385.56 c-7.75 -8.19 -16.50 -17.56 -19.50 -20.69 -3 -3.19 -5.50 -6 -5.50 -6.25 0 -0.94 -1.44 -0.50 -3.69 1.13 -1.25 0.88 -0.44 -0.06 1.75 -2.06 9.81 -8.88 16.69 -15.88 20.31 -20.50 7.13 -9.06 12.31 -17.25 16.69 -26.31 6.13 -12.56 7.38 -16.50 5.25 -16.50 -1.25 0 -1.19 -1 0.13 -1.50 1.44 -0.56 2.88 1.38 2.38 3.31 -0.88 3.50 -10.56 22.44 -14.50 28.38 -2.31 3.50 -4.75 7.13 -5.31 8.13 l-1.13 1.69 18.63 9.13 c18.94 9.31 23.19 11.31 29.81 14.31 4.75 2.13 10.88 5.25 12.38 6.25 0.88 0.63 0.94 0.88 0.31 1.13 -0.44 0.13 -0.56 0.50 -0.31 0.81 0.25 0.25 1 0.19 1.69 -0.19 0.88 -0.63 1.19 -0.56 1.50 0.13 0.31 0.81 0 1.06 -1.25 0.88 -0.25 0 -0.63 0.25 -0.88 0.63 -0.56 1 -2.50 0.13 -3.06 -1.38 -0.44 -1.13 -0.50 -1.13 -1.50 -0.13 -0.56 0.56 -1.06 0.75 -1.06 0.38 0 -0.38 -0.56 -0.69 -1.19 -0.69 -0.69 0 -1.38 -0.38 -1.56 -0.75 -0.25 -0.63 -0.50 -0.56 -1.06 0.19 -0.63 0.88 -2.06 0.38 -11.75 -4 -16.63 -7.50 -17.25 -7.75 -26.63 -12.31 -13 -6.25 -16.81 -8.06 -17.63 -8.25 -0.38 -0.13 -3.88 2.88 -7.69 6.56 l-7 6.81 1.75 2.06 c2.69 3.13 22.88 25.50 33 36.56 4.88 5.31 5.31 5.94 4.13 6.38 -0.69 0.25 -1.25 0.75 -1.25 1.13 0 2.19 -3.81 -1.13 -16.25 -14.44z"/>
  <path d="M373.19 386.50 c12.50 -12.81 17 -18.81 15.50 -20.63 -0.38 -0.50 -1.13 -0.88 -1.56 -0.88 -0.50 0 -0.88 -0.25 -0.88 -0.50 0 -0.81 1.44 -2 2.44 -2 0.69 0 0.75 0.19 0.25 0.69 -0.56 0.56 -0.38 1 0.63 1.81 l1.31 1.06 -2.13 3.63 c-2.69 4.38 -8.31 11.06 -14.13 16.69 -7.88 7.56 -8.81 7.69 -1.44 0.13z"/>
  <path d="M52.38 389.44 c-2.13 -2.13 -2.19 -2.94 -0.38 -3.44 1.06 -0.25 1.25 -0.50 0.69 -1.06 -0.75 -0.75 -0.44 -2.44 0.44 -2.44 0.63 0 1.44 3.38 1.44 5.94 l-0.06 1.88 0.88 -1.88 c0.44 -1 1 -3.25 1.25 -4.94 l0.44 -3.06 0.75 1.81 c0.81 1.94 1.25 1.50 1.75 -1.63 0.13 -0.88 0.31 1.19 0.38 4.56 l0.06 6.06 -2.94 0 c-2.44 -0.06 -3.31 -0.38 -4.69 -1.81z"/>
  <path d="M134.63 383.06 c-0.75 -1.19 -0.75 -6.38 -0.06 -7.13 0.56 -0.56 1.06 -0.56 2 -0.06 0.69 0.38 1.38 0.75 1.44 0.81 0.13 0.06 0.31 1.06 0.44 2.19 0.19 2.50 -0.75 3.94 -1.88 3 -0.94 -0.81 -1.88 0.19 -1.25 1.25 0.19 0.38 0.25 0.63 0.06 0.63 -0.19 0 -0.50 -0.31 -0.75 -0.69z"/>
  <path d="M137.19 371.44 c-0.31 -0.75 -0.56 -0.88 -0.75 -0.38 -0.13 0.44 -0.69 0.56 -1.19 0.38 -0.69 -0.25 -0.88 -2.31 -0.88 -11.38 0 -6.06 0.25 -10.69 0.50 -10.25 0.25 0.38 0.44 3.13 0.44 6.06 -0.06 2.94 0.19 5.38 0.44 5.38 0.50 0 0.75 -1 0.56 -2 0 -0.31 0.31 -0.44 0.75 -0.31 1 0.19 1.50 2.44 1.63 7.19 0.06 2.94 0.31 3.88 0.94 3.88 1.13 0 1.81 1.06 1.31 1.94 -0.31 0.38 -0.75 0.25 -1.38 -0.50 -0.81 -1.06 -0.88 -1.06 -0.56 0 0.19 0.63 0 1.06 -0.50 1.06 -0.50 0 -1.06 -0.50 -1.31 -1.06z"/>
  <path d="M152.50 365.75 c0 -0.31 0.44 -0.81 1 -1 0.94 -0.38 0.94 -0.50 0.06 -1.88 -0.94 -1.44 -0.88 -1.50 6.94 -6.63 4.38 -2.88 8.69 -5.75 9.63 -6.38 1.81 -1.19 3.38 -1.44 3.88 -0.56 0.56 0.88 -1 3.44 -3 4.81 -1.06 0.69 -4.63 3.13 -7.88 5.38 -7.94 5.38 -10.63 7 -10.63 6.25z"/>
  <path d="M54.06 335.50 c-1.31 -3.56 -0.13 -6.13 2.88 -6.13 2.88 0 4.88 4.19 2.94 6.13 -1 1 -5.44 1 -5.81 0z"/>
  <path d="M54.50 278 c-1.81 -1.81 -0.19 -6.13 2.31 -6.13 2.81 0 4.44 3.69 2.56 5.94 -0.94 1.13 -3.81 1.25 -4.88 0.19z"/>
  <path d="M11.88 275.81 l0.06 -1.75 0.75 1.44 c0.44 0.75 1 1.25 1.25 1 0.25 -0.25 0.13 -0.81 -0.25 -1.31 -0.38 -0.44 -0.50 -0.81 -0.25 -0.81 0.25 0 0.13 -0.44 -0.31 -0.94 -0.69 -0.81 -0.38 -0.94 2.13 -0.94 1.75 0 2.81 0.25 2.56 0.63 -0.19 0.31 0.56 1.06 1.69 1.63 1.88 0.94 1.94 1.13 0.81 1.50 -1.25 0.44 -1.25 0.44 0 0.75 0.69 0.19 -0.94 0.38 -3.56 0.44 l-4.88 0.06 0 -1.69z"/>
  <path d="M367.63 240.81 l0.19 -8.63 2.75 -0.19 2.69 -0.19 -1.63 1.50 c-1.50 1.44 -1.63 1.88 -1.63 7.38 0 6.69 -0.38 8.69 -1.63 8.69 -0.75 0 -0.88 -1.50 -0.75 -8.56z"/>
  <path d="M290.63 222.81 c0 -3.63 0.19 -4.69 0.88 -4.69 1.06 0 1.81 2.88 1.50 5.94 -0.13 1.50 0.19 2.44 0.75 2.81 0.69 0.44 0.44 0.63 -1.06 0.63 l-2.06 0 0 -4.69z"/>
  <path d="M285.38 221.13 c-0.50 -1.88 -0.50 -21.63 0 -23.44 0.25 -0.81 0.81 -1.44 1.25 -1.44 0.75 0 0.88 2.38 0.88 13.13 0 10.75 -0.13 13.13 -0.88 13.13 -0.44 0 -1 -0.63 -1.25 -1.38z"/>
  <path d="M256.63 203.06 c0.19 -0.38 0.38 -3.56 0.31 -7.13 -0.13 -7.13 0.25 -9.69 1.56 -9.69 0.69 0 0.88 1.69 0.88 8.75 l0 8.75 -1.63 0 c-1 0 -1.44 -0.25 -1.13 -0.69z"/>
  <path d="M425.94 198 c-3.06 -6.44 -9.81 -13.81 -17 -18.63 -5.06 -3.38 -9.56 -5.25 -16 -6.63 -3.94 -0.81 -4.56 -1.19 -7.13 -4.06 -12.06 -13.38 -32.94 -18.25 -53.06 -12.38 -2.38 0.69 -2.88 0.63 -5.63 -0.81 -8.81 -4.56 -17.38 -6.75 -26.63 -6.81 -14.75 -0.13 -28.56 5.19 -38.94 14.94 -2.44 2.31 -2 1.75 1.25 -1.63 9.13 -9.44 21.94 -14.50 36.56 -14.50 9.63 0 18.31 2.13 27.19 6.56 l4.31 2.19 4.13 -1.38 c3.63 -1.25 5.25 -1.44 14.69 -1.44 9.44 0 11.13 0.19 15.31 1.50 8.63 2.69 15.31 6.75 20.63 12.56 2.63 2.94 3.19 3.19 8.81 4.63 9.25 2.31 17.25 6.88 23.63 13.44 3.44 3.56 7.31 9 8.69 12.13 0.38 0.94 1.19 1.69 1.69 1.69 0.56 0 0.81 0.31 0.63 0.63 -0.75 1.25 -1.88 0.56 -3.13 -2z"/>
 </g>
 <g fill="#5984f2">
  <path d="M229.38 483.06 c1.81 -3.50 21.25 -31.25 23.63 -33.81 1.06 -1.13 2.25 -1.75 3.38 -1.75 6.56 0 9.56 -7.94 4.81 -12.69 -2.06 -2 -2 -3.44 0.19 -5.69 0.69 -0.75 2.63 -3.25 4.38 -5.69 1.69 -2.38 5.38 -7.50 8.19 -11.38 5 -6.81 5.19 -7 7.56 -7.06 l2.38 0 -0.38 3.63 c-0.25 1.94 -0.69 7.50 -0.94 12.31 -0.31 4.81 -1.25 12.94 -2.19 18 -0.88 5.13 -1.63 10.44 -1.63 11.88 0 4.56 -0.38 5.06 -4.88 6.63 -10 3.56 -25.13 12.25 -37.50 21.50 -7.94 5.94 -7.94 5.94 -7 4.13z"/>
  <path d="M225 476.94 c0.94 -3.06 2.19 -7.56 2.81 -10 l1.06 -4.44 2.75 0 c1.50 0 2.75 0.31 2.75 0.63 0 0.38 0.56 0.63 1.25 0.63 1.13 0 0.88 0.63 -2 4.88 -3.75 5.56 -9.81 13.88 -10.13 13.88 -0.13 0 0.50 -2.50 1.50 -5.56z"/>
  <path d="M293.94 410 c1.50 -2.69 3.44 -3.31 4 -1.25 0.31 1.13 0.88 1.25 4.94 1.25 3.50 0 4.63 0.19 4.63 0.88 0 1.25 -2 1.63 -8.88 1.63 l-6 0 1.31 -2.50z"/>
  <path d="M244.75 302.13 c-0.31 -0.81 -0.94 -0.94 -3.13 -0.63 -5.13 0.81 -18.69 0.50 -23.50 -0.50 -9.25 -1.94 -19.75 -8.31 -25.69 -15.63 -3.88 -4.69 -8.31 -13.56 -9.69 -19.44 -1.56 -6.25 -1.38 -17.88 0.31 -24.19 1.50 -5.69 4.81 -12.63 8.13 -17.06 1.75 -2.31 3.06 -3.31 4.94 -3.88 3.56 -1.13 5.75 -1.06 5.75 0.13 0 0.50 0.31 0.94 0.63 0.94 1.44 0 0.44 2.25 -2.50 5.44 -5.88 6.44 -10 17.44 -10 26.81 0 9.06 4.13 20 10 26.63 3.75 4.19 10.50 8.88 15.31 10.56 6.31 2.25 16.38 2.94 26.25 1.88 l3.75 -0.38 1.25 -3.25 c1.38 -3.69 3.06 -4.31 5.31 -2.06 1 1 1.25 2.06 1.25 5.94 0 2.69 -0.25 4.69 -0.63 4.69 -0.31 0 -0.63 0.75 -0.63 1.63 0 1.06 -0.38 1.75 -1.25 1.94 -0.69 0.19 -1.25 0.56 -1.25 0.88 0 1.06 -4.19 0.63 -4.63 -0.44z"/>
  <path d="M253.38 276.56 c0.31 -0.81 -1.13 -0.94 -10.50 -0.94 l-10.88 0 -3.06 -2.38 c-1.63 -1.31 -5.50 -5.13 -8.56 -8.44 l-5.50 -6.06 -3.69 0 c-3.19 0 -3.94 -0.25 -5.88 -1.94 -4.25 -3.75 -4.50 -9.81 -0.50 -13.50 1.94 -1.88 2.50 -2.06 5.88 -2.06 5 0 7.25 1.25 8.81 4.81 0.94 2.13 1.13 3.50 0.81 5.69 l-0.38 2.94 7.13 7.06 7.13 7 6.19 0 c7.06 0 9.63 0.81 9.63 3 0 1.19 0.31 1.38 2.81 1.38 2.81 0 2.81 0 2.81 2.19 0 1.81 -0.25 2.19 -1.31 2.19 -0.94 0 -1.19 -0.31 -0.94 -0.94z m-39.50 -23.88 c2.38 -2.13 0.50 -7.06 -2.63 -7.06 -0.75 0 -2 0.69 -2.81 1.56 -1.88 1.81 -2 3.63 -0.31 5.31 1.50 1.50 4.19 1.63 5.75 0.19z"/>
 </g>
 <g fill="#5090f6">
  <path d="M232.81 465.25 c-0.75 -0.81 -1.19 -0.88 -1.75 -0.31 -2.25 2.25 -2.50 -0.38 -0.81 -8.88 1.81 -9.06 3.50 -21.75 3.50 -26.38 l0 -3.25 7 -3.88 c12.50 -6.94 21.56 -14.13 28.06 -22.31 3.13 -4 3.25 -4.19 3.13 -7.81 l-0.13 -3.69 3.81 0 c2.13 0 4.13 -0.25 4.56 -0.63 0.44 -0.31 2.31 -1.75 4.19 -3.06 1.88 -1.38 3.75 -2.75 4.13 -3 2.56 -2 7.13 -2.88 7.13 -1.44 0 0.38 0.69 0.63 1.50 0.63 0.81 0 1.63 0.31 1.75 0.69 0.13 0.38 -2.13 4.25 -5.06 8.63 -5.31 8 -10.06 16.88 -10.06 18.94 0 0.63 -0.25 1.13 -0.56 1.13 -0.25 0 -0.44 0.75 -0.25 1.75 0.13 0.94 -0.19 0.44 -0.75 -1.13 -0.50 -1.56 -0.81 -3.19 -0.63 -3.56 1.06 -2.88 -3.63 3 -13.94 17.63 -1.75 2.44 -3.69 4.94 -4.31 5.63 -1.81 1.88 -2 3 -0.88 4.38 0.56 0.63 0 0.44 -1.19 -0.56 -1.88 -1.56 -2.50 -1.75 -5.50 -1.50 -2.56 0.25 -3.69 0.69 -5 2 -1.50 1.50 -1.69 2.13 -1.69 6.19 l0 4.50 -6.50 9.56 c-3.56 5.25 -7 9.81 -7.63 10.13 -0.81 0.44 -1.38 0.31 -2.13 -0.38z"/>
  <path d="M294.44 409.25 c1.69 -2.94 8.63 -13.13 16.88 -24.75 l2.75 -3.88 3.69 0.31 c2 0.25 4.06 0.75 4.50 1.25 0.50 0.50 1.44 1.06 2.13 1.25 0.69 0.19 1.25 0.63 1.25 0.94 0 0.25 1.69 0.69 3.69 0.94 2.94 0.31 4.19 0.81 5.63 2.25 1.06 1 2.19 1.81 2.56 1.81 0.31 0 0.63 0.44 0.63 0.94 0 0.50 0.31 0.94 0.63 0.94 0.38 0 0.63 0.56 0.63 1.25 0 0.69 0.31 1.25 0.63 1.25 0.38 0 0.63 0.44 0.63 0.94 0 0.56 0.69 1.69 1.56 2.56 0.88 0.88 1.56 2.19 1.56 3 0 1.75 -3.44 3.56 -12.63 6.69 -3.19 1.06 -6.81 2.38 -8 2.94 -2.56 1.13 -10.13 1.88 -19.81 1.94 -5.75 0.06 -7.06 -0.13 -7.06 -0.81 0 -1.69 -1.25 -1.69 -2 -0.13 -0.38 0.88 -0.94 1.63 -1.19 1.63 -0.31 0 0.31 -1.50 1.38 -3.25z"/>
  <path d="M268.13 331.63 c-7.13 -2.63 -13.63 -7.56 -17.63 -13.31 -2.13 -3.19 -4.56 -9.31 -5.38 -13.81 -0.56 -3.19 -0.56 -3.25 0.88 -3.25 0.81 0 1.50 -0.25 1.50 -0.56 0 -0.31 0.63 -0.69 1.31 -0.88 0.88 -0.25 1.25 -0.69 1 -1.31 -0.25 -0.56 0 -1.38 0.50 -1.88 0.75 -0.75 0.75 -0.94 0 -1.19 -0.44 -0.19 -1 -0.06 -1.19 0.38 -0.19 0.56 -0.31 0.56 -0.31 0 -0.06 -0.44 -0.50 -0.63 -1.13 -0.38 -1 0.38 -1 0.19 0.13 -1.13 1.50 -1.81 2.31 -2.44 2.81 -2.13 0.19 0.13 0.44 -0.31 0.44 -1 0.06 -0.69 -0.13 -1.06 -0.44 -0.88 -0.31 0.19 -0.75 -0.25 -0.94 -0.94 -0.31 -1.06 -0.56 -1.19 -1.31 -0.56 -0.50 0.38 -1.06 0.56 -1.25 0.38 -0.50 -0.44 2.13 -6.19 4.63 -10.06 1.13 -1.75 2 -3.38 2 -3.63 0 -0.25 -2.63 -0.50 -5.75 -0.56 -3.19 0 -5.38 -0.19 -4.88 -0.38 0.50 -0.13 1.38 -0.44 1.88 -0.63 0.50 -0.19 1.31 -0.44 1.81 -0.44 0.50 -0.06 1 -0.44 1.19 -0.94 0.19 -0.50 0 -0.69 -0.38 -0.44 -0.38 0.19 -1.25 -0.38 -2 -1.31 l-1.38 -1.75 7.94 -0.19 8 -0.19 4.44 -4.13 4.44 -4.13 0.19 2.69 c0.19 2.69 1.25 4.38 2.69 4.38 0.44 0 -1.56 2.19 -4.38 4.81 -13.88 12.88 -17.75 25.94 -11.50 38.69 3.31 6.81 9.69 11.63 17.88 13.38 1.94 0.44 3.56 1.06 3.56 1.38 0 0.31 -0.69 1.94 -1.56 3.63 -1.44 2.81 -1.81 3.13 -3.63 3.06 -1.06 0 -3 -0.38 -4.19 -0.81z"/>
  <path d="M274.69 307.25 c-3.38 -1.50 -4.88 -3.75 -5.13 -7.75 -0.44 -6.44 2.94 -9.63 10.38 -9.75 3.56 -0.06 4.13 0.06 4.31 1.13 0.13 0.69 0.63 1.63 1.13 2.13 0.50 0.44 0.88 1.81 0.88 3 0 1.94 -0.19 2.13 -1.81 2.13 -1.25 0 -2.13 -0.50 -2.81 -1.56 -2.06 -3.13 -7.25 -1.44 -7.25 2.38 0 2 2.19 4.19 4.19 4.19 1.50 0 3.94 -2 3.94 -3.19 0 -0.38 0.88 -0.56 2.06 -0.44 1.63 0.13 2.06 0.50 2.19 1.81 0.38 3.13 -4.25 6.88 -8.44 6.81 -0.94 -0.06 -2.56 -0.44 -3.63 -0.88z"/>
  <path d="M261.88 252.19 c-0.63 -0.75 -2.69 -0.94 -10.88 -0.94 -5.50 0 -11.13 -0.31 -12.44 -0.69 -4.25 -1.13 -4.44 -2.06 -4.81 -18.69 l-0.31 -14.69 -7.75 -0.19 c-11.25 -0.25 -15.81 1.31 -23.44 8 -3.88 3.38 -4.25 3.63 -3.69 2.13 0.19 -0.56 0 -1.25 -0.50 -1.56 -0.63 -0.38 -0.44 -0.56 0.81 -0.56 0.94 0 1.81 -0.25 2 -0.56 0.25 -0.31 -0.19 -0.44 -0.94 -0.25 -1.19 0.31 -1.25 0.25 -0.56 -1 0.69 -1.31 0.63 -1.38 -0.75 -0.63 -0.81 0.44 -1.69 0.75 -2 0.69 -0.25 -0.13 -0.81 0.25 -1.25 0.81 -0.63 0.88 -0.81 0.88 -1.94 0 -1.19 -0.94 -1.19 -1 1.94 -3.94 1.75 -1.69 4.81 -4.06 6.69 -5.31 3 -2 3.56 -2.69 3.88 -4.69 0.69 -4.19 2.88 -10.44 4.94 -14.19 2 -3.63 3.50 -5 3.50 -3.25 0 0.50 0.81 1.06 1.88 1.31 1.81 0.31 1.88 0.44 1.88 3.81 0 1.88 -0.25 3.44 -0.50 3.44 -0.25 0 -0.88 1.31 -1.31 3 -0.44 1.63 -0.94 3.44 -1.13 4.06 -0.31 1 0.44 1.06 9.56 1.06 8.75 0 10.19 0.13 11.94 1.25 3.88 2.38 4.25 3.75 4.44 19.25 l0.19 13.94 8.44 -0.19 8.38 -0.19 0 2.06 c0 1.38 0.31 2 0.94 2 0.50 0 0.94 0.31 0.94 0.63 0 0.38 0.69 0.63 1.56 0.63 1.38 0 1.56 0.25 1.56 2.19 0 2.44 -0.13 2.56 -1.25 1.25z"/>
 </g>
 <g fill="#519bf9">
  <path d="M336.56 404.38 c-0.19 -0.31 0.25 -0.69 0.94 -0.94 0.69 -0.19 1.25 -0.81 1.25 -1.31 0 -0.50 0.31 -0.75 0.63 -0.56 0.38 0.19 0.63 0.13 0.63 -0.25 0 -0.38 0.44 -0.50 0.94 -0.31 1.38 0.56 1.13 -0.13 -0.63 -1.88 -0.88 -0.88 -1.56 -2 -1.56 -2.56 0 -0.56 -0.38 -0.94 -0.75 -0.88 -2.25 0.25 -2.56 -0.06 -1.44 -1.31 1 -1.06 1 -1.25 0.13 -1.25 -0.50 0 -1.06 0.38 -1.25 0.81 -0.13 0.38 -0.44 0.56 -0.69 0.38 -0.25 -0.25 0.06 -0.88 0.63 -1.44 0.56 -0.56 0.88 -1.25 0.63 -1.44 -0.19 -0.25 -0.38 -0.19 -0.38 0.06 0 0.31 -0.94 -0.44 -2.13 -1.63 -1.63 -1.63 -2.63 -2.13 -4.06 -2 -1.06 0.06 -1.94 -0.13 -1.94 -0.50 0 -0.31 -0.50 -0.50 -1.06 -0.44 -0.63 0.06 -1.81 0.06 -2.69 0 -1.25 -0.06 -1.38 -0.19 -0.63 -0.69 0.88 -0.56 0.50 -0.75 -1 -0.56 -0.19 0 -0.88 -0.56 -1.50 -1.31 -0.81 -0.94 -1.25 -1.06 -1.44 -0.50 -0.25 0.56 -0.50 0.63 -0.88 0.13 -0.94 -1.19 -2.69 -1.56 -2.69 -0.50 0 0.50 -0.25 0.75 -0.63 0.56 -0.31 -0.19 -0.63 0 -0.63 0.50 0 0.50 -0.75 1.13 -1.69 1.31 -1 0.25 -2.56 1.31 -3.50 2.44 -3.06 3.44 2.88 -4.88 11.63 -16.25 5.06 -6.63 8.69 -10.81 9.38 -10.81 0.56 0 1.06 0.25 1.06 0.56 0 0.56 3 1.19 9.06 1.69 3.13 0.31 3.94 0.69 5.44 2.31 0.94 1.13 1.75 2.19 1.75 2.38 0 0.25 0.56 0.56 1.25 0.75 0.81 0.19 1.25 0.88 1.25 1.88 0 1.75 -0.50 2 -4.56 2.63 -4.44 0.69 -4.94 1.94 -0.94 2.44 10.19 1.19 21 0.06 31.75 -3.31 2.19 -0.69 4.13 -1.13 4.31 -0.94 0.19 0.13 -3.94 4.44 -9.06 9.50 -6.56 6.50 -11.19 10.44 -15.56 13.38 -9 5.94 -18.75 10.94 -19.38 9.88z"/>
  <path d="M271.69 389.75 c-1.13 -12.38 -0.19 -24.56 2.69 -34.25 l1.31 -4.25 2.38 0 c1.56 0 2.56 0.31 2.81 0.94 0.19 0.56 1.13 0.94 2.50 0.94 2.13 0 5.38 2.31 5.38 3.75 0 0.38 0.94 0.63 2.13 0.63 1.94 0 2.13 0.19 2.63 2.38 l0.50 2.31 0.31 -2.81 0.38 -2.81 4.13 -0.19 c3.81 -0.19 4.13 -0.06 4.94 1.44 0.56 1.06 1.38 1.56 2.56 1.56 0.94 0 1.94 0.31 2.13 0.63 0.56 0.94 2.56 0.75 3.44 -0.31 0.81 -1 4.69 -1.31 5.25 -0.44 0.19 0.31 -1.69 2.88 -4.06 5.81 -2.44 2.88 -6.81 8.44 -9.75 12.31 -2.94 3.81 -5.63 7 -5.94 7 -0.31 0 -0.44 0.25 -0.19 0.56 0.19 0.31 0 0.81 -0.38 1.06 -0.44 0.25 -0.56 0.19 -0.31 -0.25 0.19 -0.38 0.06 -0.88 -0.31 -1.13 -0.50 -0.25 -0.44 -0.56 0.13 -0.94 0.63 -0.38 0.38 -0.56 -0.81 -0.56 -1 0 -1.75 -0.31 -1.75 -0.63 0 -0.56 -1.69 0.13 -3.38 1.44 -0.38 0.25 -2.25 1.63 -4.13 2.94 -1.88 1.38 -4.06 3.06 -4.81 3.75 -1.50 1.38 -2.69 1.63 -2.69 0.56 0 -0.38 -0.44 -0.25 -0.94 0.31 -0.94 0.94 -3.13 0.75 -2.50 -0.25 0.13 -0.25 -0.38 -0.44 -1.25 -0.44 -1.25 0 -1.50 0.31 -1.69 1.94 -0.13 1.06 -0.38 -0.31 -0.69 -3z"/>
  <path d="M284.56 303.31 c0.13 -1.31 -0.19 -1.75 -1.06 -1.75 -0.88 0 -1.19 -0.56 -1.25 -2.63 -0.13 -2.19 0.06 -2.69 1.13 -2.81 1.13 -0.19 1.19 -0.25 0.19 -1.25 -0.56 -0.56 -1.06 -1.50 -1.06 -2.06 0 -1.13 -2.38 -2.19 -5.19 -2.25 -1.69 0 -1.81 -0.13 -0.75 -0.56 0.69 -0.25 2.25 -0.38 3.44 -0.19 2.06 0.25 2.50 -0.06 8.13 -5.69 5.56 -5.63 8.13 -7.25 8.13 -5.06 0 0.50 0.69 1.06 1.56 1.31 0.88 0.19 1.56 0.75 1.56 1.25 0 0.69 1.81 0.88 9.38 0.88 7.56 0 9.38 0.19 9.38 0.88 0 1.31 -2.06 1.63 -12.06 1.63 l-9.19 0 -4.94 4.75 -4.94 4.69 0.31 3.31 c0.25 2.38 0.06 3.81 -0.69 5.25 -1.25 2.44 -2.25 2.56 -2.06 0.31z"/>
  <path d="M268.75 268.69 c0 -0.31 -0.25 -0.50 -0.56 -0.31 -0.81 0.50 -1.50 -3 -1 -4.75 0.25 -0.81 0.88 -1.94 1.44 -2.56 0.88 -1 0.63 -1.44 -3.38 -5.69 -3.25 -3.44 -4.75 -4.63 -6.06 -4.69 -1 0 -1.63 -0.31 -1.38 -0.69 0.31 -0.56 -0.94 -0.94 -2.31 -0.69 -0.31 0 -0.50 -0.25 -0.50 -0.63 0 -0.31 -0.25 -0.44 -0.63 -0.25 -0.38 0.19 -0.44 -0.06 -0.25 -0.56 0.19 -0.56 0.06 -1 -0.31 -1 -0.38 0 -0.69 -0.31 -0.69 -0.69 0 -0.38 0.38 -0.56 0.81 -0.38 0.50 0.19 1.25 0.06 1.75 -0.25 0.56 -0.31 -1.94 -0.56 -6.44 -0.56 -4.50 0 -7.38 -0.25 -7.38 -0.63 0 -0.38 3 -0.63 7.81 -0.63 l7.81 0 0 -11.81 0 -11.81 -1.56 -1 c-3.50 -2.31 -5 -7.25 -3.44 -11.31 0.31 -0.88 1.50 -2.44 2.56 -3.38 1.06 -1 2.25 -2.44 2.69 -3.25 0.50 -1.13 1.31 -1.56 3.06 -1.69 1.44 -0.13 2.31 0.06 2.31 0.50 0 0.38 0.38 1.13 0.81 1.56 0.38 0.50 1.13 1.31 1.56 1.81 1.75 2.13 0.19 6.88 -1.63 4.94 -1.31 -1.38 -4.88 -1 -6 0.56 -1.31 1.88 -1.25 3.13 0.31 5.13 0.81 1.06 1.88 1.63 3 1.63 1.75 0 3.81 -1.63 3.81 -3 0 -0.44 0.81 -0.75 1.81 -0.75 1.50 0 1.94 0.31 2.25 1.81 0.50 2.25 -0.31 3.94 -2.88 5.69 l-1.88 1.38 0.19 12.13 0.19 12.06 3.44 3.56 c1.88 1.94 4.81 4.63 6.44 5.94 l3.06 2.44 13 0 13 0 0.38 1.56 c0.25 0.88 0.63 1.56 0.94 1.56 0.25 0 1.13 0.56 1.94 1.25 1.44 1.25 1.44 1.31 0.25 2.13 -0.94 0.69 -4.56 0.94 -16.31 1.13 l-15.13 0.19 -2.38 2.38 c-2.31 2.19 -4.56 3.06 -4.56 1.63z"/>
  <path d="M215 204.75 c0 -0.50 -0.38 -1.06 -0.75 -1.25 -0.63 -0.31 -0.63 -0.44 0 -0.75 0.63 -0.25 0.63 -0.56 0.13 -1.19 -0.56 -0.69 -0.44 -1.06 0.56 -1.69 0.75 -0.44 1.31 -1.44 1.31 -2.25 0 -0.81 -0.25 -1.31 -0.56 -1.13 -0.31 0.25 -0.75 0 -0.88 -0.38 -0.25 -0.63 -0.38 -0.63 -0.38 0 -0.06 0.63 -0.25 0.63 -1 -0.13 -1.94 -1.88 -1.06 -3.50 5.19 -9.63 4.88 -4.88 7.19 -6.63 11.75 -9 3.13 -1.63 7.38 -3.44 9.50 -3.94 3.44 -0.88 4 -0.94 4.81 -0.06 0.50 0.50 0.94 1.75 0.94 2.81 0 1.50 0.25 1.94 1.25 1.94 0.81 0 1.25 0.44 1.25 1.19 0 0.94 -0.75 1.31 -3.88 1.94 -2.19 0.38 -4.94 1.25 -6.13 1.81 -1.19 0.63 -3.56 1.75 -5.31 2.56 -4.56 2.19 -11.50 9.38 -14.63 15.19 -2.75 4.94 -3.19 5.50 -3.19 3.94z"/>
 </g>
 <g fill="#4ba7fb">
  <path d="M347.44 372.44 c-0.75 -0.44 -0.75 -0.56 0 -0.56 1.25 0 0.31 -0.81 -1.19 -1.06 -0.69 -0.13 -1.25 0.13 -1.25 0.44 0 0.38 -0.38 0.31 -0.88 -0.13 -0.75 -0.69 -0.69 -0.88 0.31 -1.13 1.06 -0.31 1 -0.50 -0.63 -2.31 -1.63 -1.88 -1.75 -1.94 -2.56 -0.81 -0.81 1.13 -0.88 1.13 -1.88 0 -1.06 -1.19 -3.13 -1.38 -3.88 -0.31 -0.31 0.38 -0.50 0.19 -0.50 -0.38 0 -0.56 -0.44 -1.25 -1 -1.44 -0.81 -0.31 -0.94 -0.13 -0.69 0.88 0.38 1.44 0.06 1.56 -1.13 0.38 -0.50 -0.44 -0.69 -1.06 -0.44 -1.31 0.25 -0.25 -0.50 -0.31 -1.56 -0.13 -1.44 0.31 -2.06 0.19 -2.06 -0.38 0 -0.38 -0.50 -0.19 -1 0.50 -0.56 0.69 -0.94 0.94 -0.81 0.50 0.13 -0.38 5.88 -7.50 12.75 -15.75 l12.50 -15.06 2.94 0 c2.38 0 3 0.25 3.31 1.25 0.25 0.88 0.94 1.25 2.25 1.25 1.69 0 1.81 0.19 1.81 2.19 0 1.75 0.25 2.19 1.25 2.19 0.69 0 1.25 0.31 1.25 0.63 0 0.38 0.56 0.63 1.25 0.63 0.69 0 1.25 0.31 1.25 0.63 0 0.38 1.19 0.63 2.69 0.63 3.31 0 6.06 1.19 6.06 2.69 0 0.63 0.50 1.06 1.25 1.06 1 0 1.25 0.44 1.25 2.19 0 1.19 0.25 2.69 0.56 3.31 0.31 0.56 0.75 1.56 0.94 2.19 0.19 0.63 0.94 1.06 1.94 1.06 1.25 0 1.56 0.31 1.56 1.50 0 1.19 -0.88 2 -4.19 3.94 -2.38 1.38 -6.38 3.31 -8.94 4.38 -2.56 1.13 -5.50 2.44 -6.56 2.94 -1 0.50 -4 1.38 -6.56 1.88 -2.56 0.56 -5.56 1.25 -6.63 1.56 -1.13 0.31 -2.31 0.31 -2.81 0z"/>
  <path d="M310.75 363.38 c-0.63 -0.63 -1.13 -0.69 -2 -0.25 -0.94 0.50 -1.31 0.38 -1.81 -0.50 -0.38 -0.75 -1.19 -1.13 -2.38 -1 -1.44 0.06 -2 -0.25 -2.63 -1.69 -0.56 -1.25 -1.25 -1.81 -2.31 -1.81 -0.81 0 -1.50 0.38 -1.50 0.81 0 0.56 -0.19 0.50 -0.56 -0.13 -0.38 -0.56 -0.69 -0.63 -0.94 -0.13 -0.25 0.38 -0.25 1 -0.06 1.31 0.19 0.38 0 0.63 -0.44 0.63 -0.50 0 -0.56 0.19 -0.19 0.50 0.38 0.25 0.69 0.94 0.81 1.50 0.13 0.88 -0.06 0.94 -1.25 0.38 -1.44 -0.69 -1.44 -0.81 -1 -8.56 0.81 -14.81 2.88 -23.63 8 -34.13 3.88 -8.06 8.94 -15.31 10.69 -15.31 2.13 0 3.69 1.19 3.69 2.81 0 1.31 0.31 1.56 1.81 1.56 1.38 0 1.88 0.38 2.19 1.56 0.31 1.25 0.81 1.56 2.31 1.56 1.88 0 3.69 1.19 3.69 2.44 0 1.19 2.69 3.81 3.88 3.81 0.88 0 1.13 0.50 1.13 2.50 0 2.06 0.19 2.50 1.25 2.50 0.81 0 1.56 0.69 2.13 2.06 0.50 1.06 0.94 1.63 0.94 1.25 0.06 -0.88 7.94 -1.13 9.19 -0.31 0.50 0.25 -2.44 3.94 -8.06 10.13 -4.81 5.31 -12.13 13.69 -16.19 18.63 -4.13 4.88 -7.63 8.88 -7.88 8.88 -0.19 0 0.31 -0.69 1.06 -1.50 0.75 -0.81 1.13 -1.69 0.81 -1.88 -0.31 -0.19 -1.25 0.44 -2.06 1.44 -1.25 1.50 -1.63 1.69 -2.31 0.94z"/>
  <path d="M289.38 359.94 c0 -0.38 -0.56 -0.56 -1.25 -0.38 -0.81 0.19 -1.25 0 -1.25 -0.56 0 -0.50 -0.31 -0.88 -0.75 -0.88 -0.38 0 -0.50 -0.19 -0.31 -0.38 0.25 -0.25 -0.19 -0.94 -0.94 -1.63 -0.75 -0.63 -1.50 -1 -1.69 -0.81 -0.19 0.25 0.06 0.63 0.56 0.94 0.75 0.50 0.63 0.63 -0.44 0.63 -0.81 0 -1.44 -0.31 -1.44 -0.69 0 -0.38 -0.38 -0.56 -0.75 -0.38 -0.44 0.13 -1.31 -0.50 -1.88 -1.38 -0.88 -1.31 -1.13 -1.38 -1.13 -0.50 0 1.06 -0.06 1.06 -1 0.19 -0.50 -0.56 -1.25 -0.88 -1.56 -0.69 -0.31 0.25 -0.56 0.25 -0.56 0.06 0 -1.19 3.69 -9.69 6.44 -15 4.88 -9.31 6.50 -11.63 8 -11.63 1.31 0 1.31 0.25 1.06 5.19 -0.38 6.31 0.44 17.25 1.69 22.63 0.50 2.25 0.75 4.44 0.56 5 -0.44 1.06 -3.38 1.31 -3.38 0.25z"/>
  <path d="M296.50 283.63 c1.06 -0.63 1 -0.75 -0.81 -1.50 -1.13 -0.50 -1.88 -1.13 -1.63 -1.50 0.19 -0.38 0 -0.44 -0.56 -0.25 -1.50 0.56 -1.19 -0.81 0.38 -1.88 1.13 -0.81 3.38 -1 11.38 -1 l10 0 3.56 -3.50 c3 -2.94 3.75 -3.38 4.75 -2.88 0.69 0.38 1.50 1.63 1.88 2.81 0.63 2.19 0.63 2.25 -3.50 6.31 l-4.19 4.13 -11.19 0 c-8.50 -0.06 -10.94 -0.19 -10.06 -0.75z"/>
  <path d="M302.81 263.19 c2.13 -0.38 2.31 -0.50 1.13 -0.88 -1.25 -0.44 -2.25 -2 -1.88 -3.06 0.06 -0.25 -0.44 -0.88 -1.13 -1.38 -1.19 -0.94 -1.19 -0.94 0.81 -1 1.38 0 2.69 -0.63 4.25 -2.06 l2.31 -2.06 -0.13 -7.44 c-0.13 -8.06 0.06 -8.44 3.38 -8.44 2.63 0 4.06 1.88 4.06 5.31 0 2.88 0.44 3.38 1.69 2.13 1.19 -1.19 5.19 -0.13 5.75 1.50 0.44 1.19 -0.44 2.38 -6.38 8.56 -8.38 8.81 -9.19 9.38 -13.25 9.31 l-3.13 -0.13 2.50 -0.38z"/>
  <path d="M285 243.31 c-6.19 -3.19 -6.75 -12.38 -0.94 -16.19 0.94 -0.63 1.56 -1.63 1.56 -2.50 0 -3.13 5.63 -0.88 6.50 2.56 0.25 0.88 0.69 1.56 1 1.56 0.38 0 0.63 1 0.63 2.31 0 2.19 -0.06 2.25 -1.19 1.19 -1.88 -1.69 -5.69 -1.13 -6.94 1.06 -0.81 1.50 -0.81 1.88 0 3.44 1.19 2.06 4.88 2.69 6.44 1.13 1.31 -1.31 1.69 -1.25 1.69 0.25 0 0.69 0.44 1.25 0.94 1.25 1.50 0 1.06 2.38 -0.63 3.50 -2.38 1.56 -6.50 1.75 -9.06 0.44z"/>
  <path d="M266.06 219 c-0.25 -0.25 0.06 -1 0.63 -1.63 0.88 -1 0.94 -1.31 0.25 -1.69 -0.50 -0.31 -0.63 -0.88 -0.38 -1.38 0.31 -0.50 -0.25 -0.19 -1.13 0.63 -1.88 1.69 -3.06 1.31 -1.50 -0.44 2.31 -2.50 0.44 -7.63 -2.69 -7.63 -2.13 0 -1.06 -0.69 1.13 -0.75 1.50 -0.06 1.75 -0.25 1.19 -0.88 -1.88 -2.13 -2.31 -2.75 -2.31 -3.44 0 -0.50 -0.31 -0.50 -1.06 0.19 -0.63 0.50 -1.94 1.25 -3 1.69 -1.81 0.75 -1.81 0.75 -0.81 -0.38 0.94 -1 1.06 -2.75 1.19 -11.75 l0.06 -10.63 -7.31 -0.38 c-4 -0.25 -7.44 -0.63 -7.63 -0.81 -0.25 -0.19 -0.06 -0.38 0.38 -0.38 0.56 0 0.56 -0.31 0 -1.31 -0.44 -0.88 -0.50 -1.50 -0.06 -1.75 0.38 -0.25 0.25 -0.69 -0.25 -1.19 -0.50 -0.44 -0.88 -0.50 -0.88 -0.13 0 0.38 -0.44 0.38 -1.25 -0.13 -0.69 -0.44 -1.25 -1 -1.25 -1.19 0 -0.88 10.94 -1.94 15.88 -1.56 l5.06 0.44 2.81 -2.88 c3.13 -3.19 4.94 -3.56 6.63 -1.25 0.63 0.88 1.50 1.56 1.94 1.56 1.44 0 0.88 1.94 -1.13 4.25 -1.13 1.25 -2.88 4.13 -3.94 6.38 -1.81 3.81 -1.94 4.56 -2.13 12.69 l-0.25 8.63 2.56 2.19 c2.81 2.44 4.19 6 3.56 9.31 -0.44 2.19 -3.56 6.31 -4.31 5.56z"/>
 </g>
 <g fill="#43b3fb">
  <path d="M378.44 361.25 c-0.19 -0.25 0.44 -1.13 1.31 -1.81 l1.69 -1.31 -1.69 0 c-1.06 0 -1.81 -0.44 -2 -1.06 -0.19 -0.63 -1 -2.44 -1.81 -4.06 -1.38 -2.63 -1.44 -2.94 -0.44 -3.19 0.63 -0.19 0.44 -0.31 -0.63 -0.38 -1.31 -0.06 -1.56 -0.31 -1.38 -1.44 0.13 -0.81 0.13 -1.06 -0.13 -0.63 -0.19 0.38 -0.81 0.75 -1.38 0.75 -0.81 0 -0.88 -0.13 -0.25 -0.56 0.63 -0.38 0.63 -0.63 -0.13 -1.25 -0.69 -0.56 -0.94 -0.56 -1.13 0.06 -0.25 0.63 -0.63 0.63 -2 0 -0.94 -0.38 -2.25 -0.75 -2.94 -0.75 -0.75 0 -1.06 -0.25 -0.81 -0.69 0.25 -0.50 0 -0.56 -0.94 -0.25 -1 0.31 -1.31 0.13 -1.31 -0.63 0 -0.75 -0.38 -0.94 -1.25 -0.63 -0.88 0.31 -1.25 0.13 -1.25 -0.63 0 -0.56 -0.44 -0.94 -1 -0.81 -1.56 0.25 -1.81 -1.38 -0.31 -1.81 0.75 -0.19 1.31 -0.56 1.31 -0.88 0 -0.56 -1.75 -0.06 -2.94 0.88 -0.56 0.38 -0.81 0.31 -0.88 -0.25 -0.06 -0.50 -0.13 -1.13 -0.25 -1.50 -0.06 -0.31 -0.19 -1 -0.19 -1.44 -0.13 -0.63 -0.44 -0.63 -1.38 -0.13 -0.88 0.44 -1.63 0.50 -2.38 0.06 -0.81 -0.44 -1.50 -0.25 -2.88 1.06 -1.88 1.69 2.44 -3.50 18.56 -22.50 7.38 -8.63 9.19 -10.44 10.56 -10.44 0.94 -0.06 3.19 -0.63 5 -1.31 1.81 -0.69 4.19 -1.25 5.25 -1.25 1.63 0 2.06 0.31 2.44 1.69 0.44 1.75 1.94 3.25 3.31 3.31 0.44 0 1.31 0.44 1.88 1.06 0.94 0.94 0.94 1.06 -0.13 1.69 -0.63 0.38 -1.94 1.31 -2.81 2.13 l-1.63 1.44 3.75 -0.38 c2.06 -0.19 4.25 -0.50 4.88 -0.69 0.81 -0.25 1.19 0.13 1.44 1.56 0.25 1.06 0.81 1.94 1.25 1.94 0.50 0 0.88 0.56 0.88 1.25 0 1.06 0.44 1.25 2.69 1.25 2.25 0 2.75 0.25 3.69 1.88 0.94 1.63 1.44 1.88 3.88 1.88 2.50 0 2.88 0.19 3.25 1.50 0.31 1.25 -0.38 2.56 -3.25 6.44 -4.63 6.25 -20.06 21.69 -25 25.06 -6.31 4.19 -10.19 6.38 -10.56 5.75z"/>
  <path d="M339.44 329.44 c-0.75 -1 -1 -1.06 -1.69 -0.38 -1.44 1.44 -5.50 -0.38 -5.13 -2.25 0.13 -0.44 -0.38 -0.94 -1.06 -1.06 -0.69 -0.13 -1.56 -0.75 -1.94 -1.31 -0.81 -1.13 -0.81 -2.31 -0.06 -2.06 0.25 0.06 0.44 -0.31 0.44 -0.81 0 -0.50 -0.44 -0.94 -0.94 -0.94 -0.50 0 -0.94 0.31 -0.94 0.63 0 0.38 -0.50 0.63 -1.06 0.63 -0.88 0 -0.94 -0.13 -0.25 -0.56 0.88 -0.56 0.44 -1.94 -0.63 -1.94 -0.38 0 -0.44 0.31 -0.25 0.63 0.19 0.38 0.06 0.63 -0.25 0.63 -0.94 0 -0.88 -1.69 0.13 -2.06 0.63 -0.25 0.63 -0.38 0 -0.38 -0.44 -0.06 -0.81 -0.50 -0.81 -1.06 0 -0.50 -0.38 -1.31 -0.81 -1.75 -0.63 -0.69 -0.94 -0.63 -1.56 0.06 -0.69 0.69 -1 0.63 -2 -0.31 -0.63 -0.63 -1.44 -1.81 -1.81 -2.63 -0.44 -1.13 -0.63 -1.25 -0.63 -0.44 -0.06 1.25 -1.69 1.44 -2.13 0.31 -0.25 -0.63 -0.38 -0.63 -0.38 0 -0.06 0.69 -0.19 0.69 -0.88 0 -0.44 -0.44 -1 -1.31 -1.25 -1.88 -0.19 -0.63 -0.69 -1.13 -1.06 -1.13 -0.31 0 -0.63 -0.25 -0.63 -0.63 0 -0.69 2 -0.06 2.63 0.88 0.31 0.44 0.50 0.25 0.50 -0.44 0 -0.56 -0.75 -1.44 -1.63 -1.81 -1.56 -0.69 -1.81 -0.63 -3.50 1.38 -1.06 1.19 -1.63 1.63 -1.25 0.94 1.56 -3 11.19 -13.75 17.19 -19 6.19 -5.56 19.56 -15.50 23.94 -17.88 1.75 -0.94 2.38 -1 4 -0.31 1 0.44 1.88 1.25 1.88 1.81 0 0.81 0.56 0.94 2.81 0.81 l2.81 -0.25 0 2.13 c0 1.19 -0.44 2.69 -0.94 3.38 -1.38 1.81 -1.25 2.94 0.25 2.13 1.38 -0.69 4.63 -0.81 5.31 -0.19 0.25 0.25 1.69 0.38 3.19 0.25 2.25 -0.13 2.81 0.06 2.81 0.88 0 0.56 0.44 1.44 0.94 1.94 0.50 0.50 1.19 2.06 1.56 3.38 0.38 1.38 0.88 2.50 1.19 2.50 0.25 0 0.81 0.69 1.31 1.50 0.75 1.50 0.19 2.13 -15.69 18.81 -14.19 14.94 -16.63 17.19 -17.88 16.88 -0.94 -0.19 -1.44 -0.06 -1.44 0.44 0 0.63 -0.19 0.56 -0.56 -0.06 -0.44 -0.69 -0.63 -0.56 -0.81 0.50 -0.19 1.38 -0.19 1.38 -1.06 0.13z"/>
  <path d="M323.69 277.06 c-0.06 -0.25 -0.06 -0.75 0 -1 0.06 -0.25 -0.50 -0.19 -1.19 0.19 -1.50 0.81 -1.63 0.31 -0.25 -1.13 0.94 -0.94 0.94 -1.06 -0.31 -1.94 -1.38 -0.88 -1.13 -1.19 10.06 -12.38 9.31 -9.31 11.75 -11.44 13.13 -11.44 1.13 0 1.75 0.31 1.75 0.94 0 0.50 0.31 0.94 0.63 0.94 0.38 0 0.63 0.63 0.63 1.44 0 1.06 -3.19 4.63 -11.56 13 -11.31 11.19 -12.75 12.50 -12.88 11.38z"/>
  <path d="M308.50 248 c-0.31 -0.63 -0.38 -12.94 -0.25 -27.44 0.13 -20.44 0.38 -26.44 1 -26.69 0.38 -0.13 0.75 -1.13 0.75 -2.13 0 -1.06 0.50 -3.44 1.06 -5.31 1 -3.13 1.19 -3.31 3.13 -3.31 1.31 0 2.06 0.31 2.06 0.88 0 0.44 0.63 1.25 1.38 1.75 l1.38 0.94 -1.50 4.31 c-1.50 4.25 -1.50 4.81 -1.75 29.19 -0.13 13.63 0 24.81 0.31 24.81 0.31 0 4.44 -3.94 9.25 -8.75 4.81 -4.81 8.94 -8.75 9.19 -8.75 0.31 0 0.50 0.38 0.50 0.88 0 0.44 0.44 1.19 0.94 1.63 2.31 1.88 1.19 3.81 -6.50 11.50 -4.38 4.38 -7.69 7.25 -8.13 7 -0.38 -0.25 -0.56 -0.75 -0.38 -1.06 0.44 -0.69 -2.25 -1.81 -4.31 -1.81 -1.25 0 -1.56 -0.44 -1.88 -2.50 -0.19 -1.38 -0.63 -2.44 -0.94 -2.31 -0.31 0.06 -1 -0.38 -1.44 -0.94 -1.38 -1.81 -2.25 -0.44 -2.88 4.50 -0.38 3.06 -0.69 4.31 -1 3.63z"/>
  <path d="M293.75 242.38 c0 -0.63 -0.31 -1.13 -0.69 -1.13 -0.38 0 -1.06 -0.44 -1.56 -0.94 -0.69 -0.69 -0.75 -0.94 -0.19 -0.94 0.44 0 0.63 -0.19 0.38 -0.38 -0.19 -0.25 0 -0.81 0.50 -1.31 1.38 -1.38 1.13 -4.63 -0.50 -6.50 -0.75 -0.88 -1.75 -1.50 -2.13 -1.38 -0.44 0.19 -0.81 -0.19 -0.81 -0.75 0 -0.56 0.31 -0.81 0.63 -0.63 1.19 0.75 0.63 -0.75 -0.75 -1.94 -0.75 -0.63 -1.13 -0.81 -0.88 -0.38 0.25 0.38 0.13 0.75 -0.19 0.75 -0.38 0 -0.69 -0.50 -0.69 -1.06 0 -0.94 -0.13 -1 -0.63 -0.19 -0.38 0.63 -0.63 -4.19 -0.63 -14.13 l0 -15.13 -1.56 -1 c-4 -2.63 -5.25 -8.56 -2.75 -12.63 0.69 -1.19 1.88 -2.44 2.50 -2.81 1.88 -0.94 4.75 -0.13 5.19 1.50 0.56 2.06 0.44 2.31 -0.56 2.31 -1.44 0 -3.44 2.31 -3.44 4.06 0 1.81 2.25 4.06 4.06 4.06 3.69 0 5.56 -4.75 2.81 -7.19 -1.50 -1.38 -1.69 -4.56 -0.25 -5.13 1.50 -0.56 3.88 0.81 5.25 3.06 1.50 2.44 1.63 5.81 0.31 6.38 -0.69 0.25 -0.81 0.69 -0.38 1.75 0.63 1.69 0 2.88 -2.56 4.50 l-1.75 1.13 0 14.88 0 14.88 1.56 1 c2.63 1.75 4.06 4.69 4.06 8.38 0 2.88 -0.25 3.56 -2.19 5.63 -1.56 1.69 -2.19 2 -2.19 1.25z"/>
  <path d="M267 175.94 c-0.44 -0.56 -0.50 -0.94 -0.13 -0.94 0.94 0 0.75 -1 -0.31 -2.13 -0.50 -0.50 -0.69 -1.06 -0.38 -1.25 0.94 -0.56 2.56 0.31 2.56 1.31 0 0.81 0.19 0.81 1 0.13 0.81 -0.69 0.81 -0.88 0.19 -1.13 -0.50 -0.13 -1.44 -0.94 -2.19 -1.75 -0.81 -0.94 -1.63 -1.38 -2.31 -1.06 -2.06 0.75 -1 -0.94 2.50 -4.06 4.50 -4.06 13.31 -8.44 20.19 -10.06 7.19 -1.69 7.50 -1.69 7.50 0.75 0 1.06 -0.44 3 -1 4.31 -1 2.13 -1.38 2.38 -4.88 3.13 -6.06 1.25 -13.25 5.19 -17.75 9.75 -2.19 2.19 -4.06 3.94 -4.06 3.94 -0.06 -0.06 -0.50 -0.44 -0.94 -0.94z"/>
 </g>
 <g fill="#3ebdfb">
  <path d="M415 327.50 c0.25 -2.63 0.06 -3.13 -1 -2.69 -0.56 0.19 -0.88 0.81 -0.69 1.50 0.19 0.69 0.06 1.38 -0.25 1.56 -0.31 0.19 -0.56 0 -0.56 -0.31 0 -0.38 -0.56 -0.69 -1.25 -0.69 -1.44 0 -1.56 -0.63 -0.44 -1.81 0.63 -0.69 0.56 -0.81 -0.25 -0.50 -0.75 0.25 -1.38 -0.31 -2.19 -1.75 -1.13 -2.19 -1.94 -2.38 -3.75 -0.94 -1 0.81 -1.06 0.81 -0.69 -0.13 0.25 -0.75 0.13 -1.13 -0.50 -1.13 -0.56 0 -0.75 0.38 -0.56 0.94 0.50 1.19 0 1.19 -1.25 -0.06 -0.75 -0.75 -0.81 -1.25 -0.38 -2.19 0.56 -1 0.44 -1.19 -0.75 -1.19 -1.19 0 -1.25 0.13 -0.50 0.63 0.81 0.50 0.75 0.63 -0.13 0.63 -1.25 0 -1.56 -1.63 -0.44 -2 1.31 -0.44 0 -2.81 -1.50 -2.69 -0.75 0.06 -1.75 0 -2.13 -0.19 -1.31 -0.44 -0.25 -1.38 1.56 -1.38 5.44 0 18.75 -4.56 26.63 -9.06 4.63 -2.63 6.63 -3.38 6.63 -2.44 0 1.75 -11.13 21.63 -14.44 25.81 l-1.31 1.63 0.13 -1.56z"/>
  <path d="M373.13 309.94 c0 -0.38 2 -3 4.44 -5.81 11.44 -13 34.94 -41.63 34.94 -42.50 0 -1.88 -4.88 2.50 -23.25 21.06 -11.69 11.75 -19.56 19.44 -17.50 17 2.06 -2.38 3.63 -4.63 3.38 -4.94 -0.19 -0.38 -0.44 -0.31 -0.63 0.13 -0.13 0.44 -0.50 0.56 -0.81 0.38 -0.38 -0.19 -0.38 -0.63 -0.06 -1.06 0.38 -0.50 0.19 -1.19 -0.56 -1.94 -1.19 -1.19 -1.19 -1.19 -1.19 0.38 0 0.88 -0.44 1.94 -0.94 2.38 -0.75 0.63 -0.94 0.63 -0.94 -0.25 0 -0.56 0.31 -1 0.69 -1 0.50 0 0.50 -0.25 0.06 -0.81 -0.69 -0.81 0.56 -3.25 1.31 -2.50 0.69 0.63 0.50 -0.38 -0.31 -1.88 -0.38 -0.75 -1.13 -1.69 -1.63 -2.06 -0.50 -0.38 -0.75 -1 -0.50 -1.38 0.25 -0.44 0.13 -0.75 -0.19 -0.75 -0.38 0 -0.69 0.25 -0.69 0.56 0 1.19 -2.06 1.25 -3.63 0.13 -1.31 -0.88 -2 -1 -3.06 -0.50 -0.81 0.31 -1.44 0.88 -1.44 1.19 0 0.31 -0.63 0.38 -1.38 0.13 -0.81 -0.25 -1.94 -0.44 -2.50 -0.38 -1.38 0.06 -1.38 -0.13 -0.13 -1.38 0.88 -0.94 0.88 -1 -0.06 -1 -1.38 0 -0.69 -2.06 1.38 -4.13 0.88 -0.88 1.44 -1.75 1.25 -1.88 -0.56 -0.56 -3 1 -2.63 1.69 0.25 0.31 -0.06 0.56 -0.56 0.56 -0.56 0 -0.94 -0.38 -0.88 -0.75 0.13 -0.44 -0.19 -0.75 -0.56 -0.63 -0.50 0.06 -0.81 -0.50 -0.81 -1.38 0 -1.13 -0.56 -1.69 -2.31 -2.44 l-2.25 -0.88 3.69 -2.38 c2 -1.31 6.94 -4.38 10.88 -6.75 3.94 -2.44 11.69 -7.38 17.19 -11 5.50 -3.63 10.38 -6.50 10.81 -6.44 0.38 0.13 0.75 -0.19 0.75 -0.69 0 -0.50 1.06 -1.63 2.31 -2.50 2.69 -1.94 3.31 -1.50 3.31 2.25 0 2.19 -0.13 2.31 -1.88 2.31 -1.25 0 -1.88 0.31 -1.88 0.94 0 0.50 0.38 0.94 0.81 0.94 0.88 0 2.94 2.19 2.94 3.13 0 0.38 0.50 0.63 1.13 0.63 0.56 0 2.94 0.44 5.31 1 3.88 1 4.31 1 5.31 0 1.25 -1.06 5.75 -1.38 5.75 -0.38 0 0.38 0.56 0.63 1.19 0.63 1.31 0 1.94 1.19 1.94 3.81 0 1.19 -0.31 1.81 -0.88 1.81 -1.25 0 -1.81 1.06 -2.25 4.06 -0.31 2.31 -0.19 2.56 1.56 3.19 1.44 0.50 1.94 1.13 2.06 2.56 0.19 1.56 0.56 2 2.06 2.31 1.63 0.31 1.81 0.56 1.81 2.88 0 1.81 0.25 2.50 0.94 2.50 0.50 0 0.94 0.44 0.94 0.94 0 0.50 0.38 0.94 0.88 0.94 0.50 0 1.06 0.38 1.19 0.81 0.19 0.38 0.38 -0.19 0.38 -1.25 0.06 -1.94 0.19 -2.06 2.50 -2.06 1.75 0 2.81 -0.44 4 -1.63 1.06 -1 2.63 -1.75 4.31 -1.94 l2.63 -0.38 -1.38 2.13 c-7.88 12.50 -20.81 23.75 -36.13 31.44 -6.13 3.13 -9.63 4.13 -9.63 2.94 0 -0.50 -0.50 -0.63 -1.19 -0.38 -0.75 0.19 -1.31 0 -1.56 -0.69 -0.25 -0.63 -0.75 -0.88 -1.38 -0.63 -0.81 0.31 -0.94 0.13 -0.69 -0.88 0.19 -0.69 0.06 -1.25 -0.31 -1.25 -0.38 0 -0.50 -0.44 -0.25 -0.94 0.44 -1.19 -0.25 -1.19 -1.88 0 -0.75 0.50 -1.50 0.69 -1.75 0.50 -0.19 -0.19 -0.38 -0.06 -0.38 0.38 0 0.50 -0.44 0.69 -0.94 0.44 -0.56 -0.19 -1.31 0.25 -1.94 1.19 -0.56 0.88 -1.44 1.56 -1.88 1.56 -1.06 0 -1.13 -0.75 -0.19 -1.69 0.50 -0.50 0.25 -0.69 -0.94 -0.63 -1 0.06 -1.50 0.44 -1.31 0.94 0.13 0.38 -0.13 0.75 -0.56 0.75 -0.44 0 -1.19 0.44 -1.63 0.94 -0.94 1.13 -1.88 1.25 -1.88 0.25z"/>
  <path d="M340.63 258.13 c-0.75 -0.50 -0.69 -0.63 0.50 -0.63 0.81 0 1.38 -0.38 1.38 -1 0 -1.13 1.69 -3 2 -2.19 0.13 0.31 0.56 0.19 1 -0.31 0.69 -0.75 0.56 -0.88 -0.63 -0.94 -0.81 0 -1.06 -0.19 -0.63 -0.38 0.38 -0.13 0.75 -0.50 0.75 -0.81 0 -1.31 -3.56 0.38 -6.56 3.06 -1.38 1.25 -0.44 0.13 2.06 -2.50 l4.63 -4.75 8.31 -0.31 8.25 -0.25 1.94 -2 c1.38 -1.38 2.56 -2 3.88 -2 1.81 0 1.88 0.06 1.88 3.06 0 2.81 -0.19 3.31 -2 4.63 -4.19 3.13 -5.69 3.56 -12.63 3.56 l-6.63 0 -2.44 2.19 c-2.50 2.25 -3.50 2.56 -5.06 1.56z"/>
  <path d="M329.56 232.19 l7.31 -7.50 0 -9.13 c0 -8.25 0.13 -9.25 1.25 -10.56 0.69 -0.81 1.25 -1.94 1.25 -2.63 0 -0.94 0.50 -1.13 3.75 -1.13 3.56 0 3.75 0.06 3.75 1.56 0 0.94 -0.56 1.94 -1.56 2.56 l-1.56 1 0 10.44 0 10.38 -5.63 5.63 c-3.06 3.06 -5.81 5.38 -6 5.13 -0.25 -0.25 0.38 -1.31 1.31 -2.31 1.56 -1.63 1.75 -2.06 1.06 -3 -0.44 -0.56 -0.94 -1.56 -1.19 -2.19 -0.31 -1 -1.25 -0.31 -5.75 4.06 -2.94 2.81 -2.06 1.81 2 -2.31z"/>
  <path d="M363.13 235.38 c0 -0.44 -1 -1.63 -2.19 -2.50 -1.63 -1.25 -2.19 -2.19 -2.19 -3.56 0 -1.63 0.19 -1.81 2.06 -1.81 3.63 0 5.88 4 4.44 7.75 -0.50 1.25 -2.13 1.31 -2.13 0.13z"/>
  <path d="M308.25 209.38 c-0.25 -17.63 2.94 -27.81 11.81 -37.19 3.50 -3.75 3.56 -3.63 -2.56 -6.50 -6.44 -3.06 -12.13 -4.06 -20.88 -3.63 -4.81 0.25 -7.06 0.13 -6.13 -0.19 0.75 -0.31 1.44 -1 1.50 -1.56 0 -0.50 0.06 -1.31 0.13 -1.69 0.06 -0.44 0.44 -1.06 0.88 -1.31 0.38 -0.25 0.75 -0.81 0.75 -1.19 0 -0.75 -6.25 -0.25 -7.94 0.69 -1.13 0.63 -8.13 3.19 -8.63 3.19 -0.19 0 -0.31 -0.25 -0.31 -0.56 0 -0.81 7.19 -3.50 12.69 -4.75 3.75 -0.81 6.75 -1 12.81 -0.81 9.50 0.38 15.50 2.06 22.50 6.44 2.56 1.56 4.88 2.81 5.19 2.81 0.31 0 2.75 -0.75 5.38 -1.63 4 -1.38 6.44 -1.69 13.81 -2 l8.88 -0.31 0 2.63 c0 1.38 0.31 2.56 0.63 2.56 0.38 0 0.63 0.75 0.63 1.75 l0 1.69 -8.31 0.06 c-8.44 0.06 -12 0.75 -17.31 3.38 -8.38 4.19 -16.13 15.25 -17.38 24.63 l-0.44 3.19 -0.31 -2.50 c-0.19 -1.38 0 -3.75 0.44 -5.25 0.88 -3.25 0.50 -4.31 -1.06 -2.88 -1 0.94 -1.13 0.94 -1.50 0 -0.56 -1.50 -0.50 -1.56 0.75 -1.19 0.81 0.31 0.88 0.25 0.19 -0.25 -0.44 -0.31 -0.63 -1 -0.44 -1.44 0.25 -0.50 -0.13 -0.19 -0.81 0.63 -1.31 1.44 -1.81 3.81 -0.81 3.81 0.31 0 0.25 1.38 -0.13 3.06 -0.31 1.75 -0.81 3 -1.06 2.81 -0.63 -0.38 -1.38 2.06 -0.94 2.81 0.25 0.31 0 0.69 -0.38 0.81 -0.56 0.19 -0.94 2.69 -1.19 8.38 l-0.31 8.06 -0.13 -6.56z"/>
  <path d="M294.81 192.44 c-0.31 -1.25 -0.44 -1.25 -1.81 -0.31 -0.75 0.56 -1.63 1 -1.88 1 -1 0 -0.44 -1.63 0.75 -2.38 0.94 -0.56 1.25 -1.44 1.25 -3.63 0 -1.56 -0.25 -2.69 -0.56 -2.44 -0.31 0.19 -0.75 0.06 -1 -0.31 -0.19 -0.31 -1.69 -0.63 -3.25 -0.63 -2.44 0 -2.75 -0.13 -2.06 -0.94 0.63 -0.75 0.56 -0.94 -0.38 -1.06 -0.69 0 -1.69 -0.06 -2.25 0 -1.81 0.19 -1.31 -1 0.94 -2.13 2.56 -1.38 6.44 -1.38 9.06 0 2.88 1.50 4.50 4.38 4.50 8.19 0 4.38 -2.50 7.81 -3.31 4.63z m1.19 -7.69 c-0.50 -2.38 -2 -4 -2.88 -3.13 -0.38 0.38 -0.25 1.19 0.31 2.38 0.50 1 0.94 2.13 0.94 2.63 0 0.50 0.38 0.69 1 0.44 0.75 -0.25 0.88 -0.88 0.63 -2.31z"/>
 </g>
 <g fill="#39c4fc">
  <path d="M430 285.06 c0 -1.44 -0.31 -1.94 -1.06 -1.94 -0.81 0 -0.88 0.19 -0.31 0.75 1.19 1.19 0.88 1.75 -1.13 1.75 -1.44 0 -2.06 -0.38 -2.44 -1.38 -0.31 -0.81 -0.38 -1.69 -0.25 -2 0.19 -0.25 -0.31 -0.31 -1.06 -0.06 -1.25 0.38 -1.38 0.25 -1.06 -0.88 0.19 -0.81 0 -1.31 -0.44 -1.31 -1.19 0 -2.81 -3.25 -1.75 -3.56 0.38 -0.19 0.75 -0.56 0.75 -0.88 0 -0.38 -0.50 -0.31 -1.25 0.06 -0.75 0.38 -1.25 0.44 -1.25 0.06 0 -0.31 0.38 -0.75 0.81 -0.88 0.38 -0.19 0.13 -0.38 -0.63 -0.38 -0.81 -0.06 -1.44 -0.31 -1.44 -0.69 0 -0.31 -0.63 -0.63 -1.38 -0.63 l-1.31 0 1.38 -1.19 c1 -0.88 1.19 -1.31 0.63 -1.69 -0.44 -0.25 -1.13 0.06 -1.63 0.75 -0.75 1 -0.94 1.06 -1.44 0.25 -0.44 -0.69 -0.25 -1.06 0.50 -1.38 0.88 -0.31 0.81 -0.44 -0.31 -0.44 -0.88 -0.06 -1.44 -0.44 -1.44 -1.06 0 -0.88 -0.19 -0.88 -0.94 -0.25 -0.50 0.44 -0.94 0.56 -0.94 0.25 0.06 -0.88 1.63 -2.75 2.06 -2.38 0.19 0.19 0.50 -0.25 0.75 -1 0.56 -1.81 -0.06 -2.31 -1.75 -1.31 l-1.38 0.88 1.25 -1.44 c3.06 -3.56 4.25 -4.69 4.75 -4.56 0.25 0.13 0.38 -0.25 0.19 -0.75 -0.25 -0.50 -0.88 -0.94 -1.50 -0.94 -0.63 0 -1.25 -0.38 -1.44 -0.75 -0.19 -0.56 -0.94 -0.19 -2.25 1.06 -1.56 1.44 -2.13 1.69 -2.50 1 -0.38 -0.56 -0.69 -0.63 -0.94 -0.13 -0.63 1 -1.38 0.88 -2.63 -0.38 -0.81 -0.81 -1.19 -0.88 -1.38 -0.31 -0.13 0.38 -0.81 0.75 -1.56 0.75 -1 0 -1.13 -0.19 -0.50 -0.56 0.56 -0.38 0.63 -0.69 0.13 -0.94 -0.38 -0.25 -0.94 -0.25 -1.31 -0.06 -0.31 0.19 -0.63 0 -0.63 -0.44 0 -0.63 -0.13 -0.63 -0.56 0.06 -0.44 0.69 -0.56 0.69 -0.81 0 -0.25 -0.75 -0.44 -0.75 -1.31 0 -0.94 0.75 -1.06 0.69 -1.06 -0.75 0 -1.31 -0.25 -1.50 -1.38 -1.25 -1.06 0.19 -1.19 0.13 -0.56 -0.31 0.44 -0.31 0.63 -0.94 0.38 -1.31 -0.25 -0.50 -0.69 -0.56 -1.13 -0.13 -0.50 0.38 -1 0.25 -1.56 -0.31 -0.44 -0.50 -0.56 -0.88 -0.25 -0.88 1.31 0 0.38 -1.88 -1.13 -2.44 -1.31 -0.44 -1.94 -0.31 -2.75 0.44 -0.56 0.56 -1 0.81 -1 0.63 0 -0.25 2.69 -2.44 6 -4.88 22.50 -16.75 38.31 -32.88 50.81 -51.88 2.63 -4 5.88 -9.56 7.25 -12.38 1.94 -4.13 2.69 -5.13 3.81 -5.13 1.81 0 2 1.44 2.50 22.63 0.56 22.88 -1.06 36.75 -6.38 53 -3.69 11.63 -9.94 24 -12.38 24.75 -0.75 0.25 -2.25 1.31 -3.38 2.38 -1.13 1.06 -2.31 1.88 -2.56 1.81 -0.25 -0.06 -0.50 0.50 -0.50 1.19 -0.06 0.75 -0.44 1.56 -0.88 1.81 -0.38 0.25 -0.56 1 -0.38 1.75 0.19 0.75 0.06 1.50 -0.25 1.69 -0.31 0.19 -0.56 -0.56 -0.56 -1.56z m1 -4.75 c0.06 -0.50 -0.25 -0.94 -0.69 -0.94 -0.44 0 -0.75 0.50 -0.63 1.13 0.13 0.56 0.25 1.19 0.25 1.31 0.13 0.56 0.94 -0.63 1.06 -1.50z m-34.75 -34.50 c-0.06 -1.13 -1.13 -2.19 -1.50 -1.50 -0.25 0.38 -0.25 1 -0.06 1.31 0.44 0.75 1.56 0.81 1.56 0.19z"/>
  <path d="M366.88 250.44 c0 -0.56 0.31 -1.19 0.63 -1.38 0.88 -0.56 0.81 -4.06 -0.13 -4.06 -0.38 0 -0.56 0.19 -0.31 0.38 0.44 0.44 -1.63 2.63 -2.19 2.31 -0.31 -0.13 -0.50 0.06 -0.50 0.38 0 0.50 -0.38 0.44 -1.19 -0.06 -0.88 -0.50 -1.06 -1.06 -0.69 -1.75 0.31 -0.50 0.63 -4 0.69 -7.75 0.13 -5.75 0 -6.88 -0.88 -7.56 -0.56 -0.38 -0.88 -0.94 -0.63 -1.13 0.19 -0.25 0.06 -0.44 -0.44 -0.44 -0.56 0 -0.69 0.56 -0.38 1.94 0.31 1.75 0.25 1.88 -0.69 1.13 -0.56 -0.50 -1.56 -2.13 -2.25 -3.63 -3.69 -8.31 5.50 -16.06 13.50 -11.38 5.69 3.25 5.63 12.50 -0.13 15.88 l-1.94 1.13 0 7.38 c0 6.56 -0.13 7.50 -1.25 8.50 -1.06 1 -1.25 1 -1.25 0.13z m2.63 -22.13 c1.63 -1.44 1.50 -4.88 -0.25 -6.06 -2.88 -2.06 -6.75 -0.44 -6.75 2.81 0 3.56 4.38 5.63 7 3.25z"/>
  <path d="M391.25 227.56 l0 -6.88 -1.81 -1.06 c-2.44 -1.44 -3.94 -4.19 -3.94 -7.31 -0.13 -5.38 3.69 -9.19 9.19 -9.19 5.88 0 9.50 4.13 8.88 10.19 -0.25 2.75 -0.63 3.50 -2.88 5.56 -2.50 2.38 -2.56 2.56 -2.56 6.38 l0 4 -3.06 2.56 c-1.69 1.44 -3.25 2.56 -3.44 2.56 -0.19 0 -0.38 -3.06 -0.38 -6.81z m6.25 -12.56 c3.75 -3.75 -1.81 -9.38 -5.75 -5.81 -2.50 2.25 -0.50 7.06 2.94 7.06 0.88 0 2.13 -0.56 2.81 -1.25z"/>
  <path d="M336.75 215.69 l0.19 -9.81 -1.50 -0.81 c-0.88 -0.44 -2.19 -1.94 -2.94 -3.31 -3.50 -6.25 1.06 -13.63 8.44 -13.63 2.75 0 6.63 2.19 7.81 4.38 0.63 1.13 1.31 1.25 8 1.25 l7.31 0 6.75 -6.75 c3.69 -3.69 6.69 -7 6.69 -7.44 0 -1.25 -5.81 -5.88 -10 -8 -2.25 -1.13 -5.69 -2.44 -7.69 -2.88 -1.94 -0.50 -3.56 -1.06 -3.56 -1.31 0 -0.31 0.31 -0.50 0.69 -0.50 0.38 0 0.25 -0.44 -0.31 -0.94 -0.50 -0.56 -1.25 -0.88 -1.69 -0.81 -0.38 0.13 -1.06 -0.88 -1.50 -2.13 l-0.88 -2.31 1.94 0.25 c1.44 0.19 1.75 0.06 1.50 -0.75 -0.31 -0.75 0.06 -0.88 2.25 -0.50 8.94 1.50 17.69 6.19 23.56 12.63 l3.94 4.25 5.31 1.06 c10.13 2 19.69 7.88 25.56 15.75 3 4 6.50 10.31 6.50 11.81 0 1.13 -5 6.81 -5.75 6.56 -0.31 -0.13 -1.31 -2.06 -2.19 -4.25 -5 -12.50 -15.25 -20.56 -28.31 -22.19 l-3.44 -0.44 -8.25 7.88 -8.31 7.88 -8.50 0 -8.56 0 -2.13 2.50 c-2.06 2.38 -3.94 3.25 -3.94 1.88 0 -0.31 0.31 -0.63 0.63 -0.63 0.38 0 0.63 -0.19 0.63 -0.50 0 -0.25 -0.81 -0.44 -1.81 -0.44 -1.31 -0.06 -1.69 0.13 -1.31 0.69 0.38 0.38 0.44 0.88 0.13 1.13 -0.25 0.25 0.06 0.75 0.69 1.06 0.81 0.50 1.06 1.44 1.06 4.31 0 2 -0.25 3.88 -0.63 4.06 -0.38 0.25 -0.63 -0.94 -0.63 -3.06 0 -2.38 -0.25 -3.50 -0.75 -3.50 -0.63 0 -0.63 -0.13 -0.13 -0.50 0.56 -0.31 0.56 -0.63 -0.06 -1.19 -0.56 -0.50 -0.94 -0.44 -1.63 0.50 -0.44 0.63 -1.19 1.19 -1.63 1.19 -0.63 0 -0.81 2 -0.81 8.38 0 4.63 -0.19 8.56 -0.44 8.69 -0.31 0.19 -0.44 -4.13 -0.31 -9.50z m7 -15.69 c1.50 -1.50 1.56 -3 0.25 -4.88 -1.31 -1.94 -5.44 -1.94 -6.75 0 -2.06 2.88 -0.38 6.13 3.13 6.13 1.31 0 2.63 -0.50 3.38 -1.25z"/>
 </g>
</svg>